<svg width="38" height="32" viewBox="0 0 38 32" fill="none" xmlns="http://www.w3.org/2000/svg">
<path d="M34.2956 16C34.2956 18.9201 33.6152 21.7345 32.3288 24.2644C31.8969 25.1132 32.1744 26.15 32.9813 26.6574C33.8916 27.2298 35.1002 26.9 35.589 25.941C37.1089 22.9571 37.9669 19.5784 37.9669 16C37.9669 12.4216 37.1124 9.0557 35.5983 6.07526C35.1107 5.11506 33.9009 4.78532 32.9894 5.35772C32.1836 5.86394 31.9062 6.90077 32.3369 7.74951C33.6187 10.2748 34.2968 13.0857 34.2968 16H34.2956Z" fill="#6FBAF7"/>
<path d="M28.3626 16C28.3626 17.8101 27.9748 19.561 27.2387 21.1574C26.8532 21.9946 27.1493 22.9873 27.9283 23.4784C28.8676 24.0694 30.1111 23.6978 30.5756 22.69C31.53 20.6187 32.0327 18.3477 32.0327 16C32.0327 13.6523 31.5323 11.3929 30.5837 9.32738C30.1204 8.31842 28.8758 7.94688 27.9365 8.53786C27.1574 9.02783 26.8613 10.0205 27.2456 10.8565C27.9771 12.4495 28.3626 14.1957 28.3626 16Z" fill="#6FBAF7"/>
<path d="M16.0321 28.3305C12.7394 28.3305 9.64282 27.0475 7.31373 24.7196C4.98464 22.3905 3.70283 19.2951 3.70283 16.0012C3.70283 12.7072 4.9858 9.61184 7.31373 7.28275C9.64282 4.95367 12.7382 3.67185 16.0321 3.67185C19.5873 3.67185 22.1196 5.11738 23.5628 6.23432C24.2942 6.79975 25.3288 6.74054 25.9836 6.08686C26.7661 5.30547 26.6814 4.01437 25.8048 3.34095C23.8438 1.83273 20.5487 0.000579834 16.0321 0.000579834C11.7583 0.000579834 7.741 1.66438 4.71876 4.68662C1.69652 7.70886 0.0327148 11.7261 0.0327148 16C0.0327148 20.2483 1.71509 24.3086 4.71876 27.3134C7.741 30.3356 11.7583 31.9994 16.0321 31.9994C19.6268 31.9994 23.0403 30.8221 25.8315 28.6498C26.6884 27.9833 26.7627 26.7143 25.9952 25.9468L25.9569 25.9085C25.3137 25.2653 24.2942 25.2014 23.5744 25.7564C22.1637 26.8443 19.6047 28.3293 16.0321 28.3293V28.3305Z" fill="#007CFF"/>
<path d="M25.6225 14.6926C25.2765 14.3467 24.8063 14.1516 24.3163 14.1516H24.3151L17.891 14.1597C16.8704 14.1597 16.0437 14.9876 16.0437 16.0081C16.0437 17.0287 16.8716 17.8565 17.8922 17.8565C17.8956 17.8565 17.9003 17.8565 17.9038 17.8565L22.1974 17.8507C21.3788 20.5688 18.8059 22.5345 15.7999 22.4242C12.3283 22.2964 9.56734 19.3868 9.61378 15.9129C9.66023 12.403 12.5199 9.57237 16.0414 9.57237C17.2698 9.57237 18.4471 9.91488 19.4607 10.5546C20.1899 11.0144 21.1443 10.8971 21.7538 10.2864C22.5863 9.45394 22.4354 8.06183 21.4415 7.43253C19.2448 6.04158 16.5651 5.53768 13.8493 6.10428C9.96443 6.91586 6.92941 9.98687 6.13408 13.8753C4.80235 20.3818 9.76356 26.1245 16.0403 26.1245C21.6226 26.1245 26.1647 21.5824 26.1647 16C26.1647 15.51 25.9697 15.0398 25.6225 14.6926Z" fill="#002CB8"/>
</svg>
