<svg width="21" height="28" viewBox="0 0 21 28" fill="none" xmlns="http://www.w3.org/2000/svg">
<path fill-rule="evenodd" clip-rule="evenodd" d="M5.30098 24.5479C4.28396 24.5479 3.4994 23.7874 3.4994 22.8298V12.2984H1.74991C0.783463 12.2984 0 11.5149 0 10.5485C0 9.58203 0.783463 8.79857 1.74991 8.79857H3.4994V5.29508C3.4994 4.30929 4.28396 3.54883 5.30098 3.54883H9.76941C13.9753 3.54883 16.7779 5.58919 17.3781 8.79857H19.2491C20.2156 8.79857 20.999 9.58203 20.999 10.5485C20.999 11.5149 20.2156 12.2984 19.2491 12.2984H17.2002C16.2411 15.5227 13.083 17.5482 9.3626 17.5482H7.0735V22.8298C7.0735 23.7874 6.28894 24.5479 5.30098 24.5479ZM13.6005 8.79857C13.0218 7.41881 11.5335 6.70335 9.47883 6.70335H7.0735V8.79857H13.6005ZM7.0735 12.2984H13.312C12.6075 13.5103 11.2655 14.4218 9.47883 14.4218H7.0735V12.2984Z" fill="#0058E5"/>
</svg>
