<svg width="32" height="32" viewBox="0 0 32 32" fill="none" xmlns="http://www.w3.org/2000/svg">
<path opacity="0.4" fill-rule="evenodd" clip-rule="evenodd" d="M6.21566 12.2462V4.98471H25.7849V12.2462H22.1541C21.7803 12.2462 21.4772 12.5493 21.4772 12.9232C21.4772 13.297 21.7803 13.6001 22.1541 13.6001H25.8464C26.5602 13.6001 27.1387 13.0215 27.1387 12.3078V4.92317C27.1387 4.20945 26.5602 3.63086 25.8464 3.63086H6.15412C5.4404 3.63086 4.86182 4.20945 4.86182 4.92317V12.3078C4.86182 13.0215 5.4404 13.6001 6.15412 13.6001H9.53874C9.91259 13.6001 10.2157 13.297 10.2157 12.9232C10.2157 12.5493 9.91259 12.2462 9.53874 12.2462H6.21566ZM8.61567 7.32305C8.24181 7.32305 7.93875 7.62612 7.93875 7.99997C7.93875 8.37382 8.24181 8.67689 8.61567 8.67689H23.3849C23.7588 8.67689 24.0618 8.37382 24.0618 7.99997C24.0618 7.62612 23.7588 7.32305 23.3849 7.32305H8.61567Z" fill="#025AE9"/>
<path fill-rule="evenodd" clip-rule="evenodd" d="M8.61499 8.61719V12.0985V27.6941C8.61499 28.3738 9.16602 28.9249 9.84576 28.9249H22.1535C22.8332 28.9249 23.3842 28.3738 23.3842 27.6941V8.61719H8.61499ZM14.7562 16.3922L14.7562 17.1018H17.3959C17.1934 16.6816 16.7635 16.3922 16.2666 16.3922H14.7562ZM13.2378 17.1018H13.55L13.55 15.8536C13.55 15.6482 13.6526 15.4668 13.8095 15.3579C13.9055 15.2857 14.0249 15.243 14.1543 15.243H16.2666C17.4052 15.243 18.3605 16.0356 18.6069 17.1018H18.9738C19.2733 17.1018 19.5161 17.3446 19.5161 17.6441C19.5161 17.9436 19.2733 18.1864 18.9738 18.1864H18.6074C18.3621 19.251 17.4083 20.0469 16.2666 20.0469H14.7564L14.7564 21.6315C14.7565 21.9646 14.4865 22.2346 14.1534 22.2346C13.8203 22.2346 13.5503 21.9646 13.5503 21.6316L13.5501 18.1864H13.2378C12.9383 18.1864 12.6955 17.9436 12.6955 17.6441C12.6955 17.3446 12.9383 17.1018 13.2378 17.1018ZM16.2666 18.8977C16.7651 18.8977 17.1948 18.6069 17.3967 18.1864H14.7563L14.7563 18.8977H16.2666Z" fill="#025AE9"/>
</svg>
