<svg width="32" height="32" viewBox="0 0 32 32" fill="none" xmlns="http://www.w3.org/2000/svg">
<path fill-rule="evenodd" clip-rule="evenodd" d="M4.30758 5.53741C4.30758 4.85767 4.85861 4.30664 5.53835 4.30664H26.4614C27.1412 4.30664 27.6922 4.85767 27.6922 5.53741V13.5374C27.6922 14.2171 27.1412 14.7682 26.4614 14.7682L25.846 14.7682V16.658C27.9336 16.9566 29.5384 18.7519 29.5384 20.922C29.5384 23.0922 27.9336 24.8875 25.846 25.1861V28.1836H28.8614C29.2353 28.1836 29.5383 28.4866 29.5383 28.8605C29.5383 29.2343 29.2353 29.5374 28.8614 29.5374H24.6153H7.3845H3.13835C2.76449 29.5374 2.46143 29.2343 2.46143 28.8605C2.46143 28.4866 2.76449 28.1836 3.13835 28.1836H6.15373V14.7682L5.53835 14.7682C4.85861 14.7682 4.30758 14.2171 4.30758 13.5374V5.53741ZM24.6153 25.1861C22.5277 24.8875 20.923 23.0922 20.923 20.922C20.923 18.7519 22.5277 16.9566 24.6153 16.658V14.7682H7.3845L7.3845 28.1836H24.6153V25.1861ZM7.3845 13.5374H24.6153H26.4614V11.6913H5.53835V13.5374H7.3845ZM5.53835 10.4605V8.61433H26.4614V10.4605H5.53835ZM5.53835 7.38356H26.4614V5.53741L5.53835 5.53741V7.38356ZM13.5383 17.8451C12.5187 17.8451 11.6922 18.6717 11.6922 19.6913V24.922C11.6922 25.092 11.83 25.2297 11.9999 25.2297H17.5383C17.7083 25.2297 17.846 25.092 17.846 24.922V19.6913C17.846 18.6717 17.0195 17.8451 15.9999 17.8451H13.5383ZM10.4614 19.6913C10.4614 17.9919 11.839 16.6143 13.5383 16.6143H15.9999C17.6992 16.6143 19.0768 17.9919 19.0768 19.6913V24.922C19.0768 25.7717 18.388 26.4605 17.5383 26.4605H11.9999C11.1502 26.4605 10.4614 25.7717 10.4614 24.922V19.6913ZM26.8381 20.6441C26.8092 20.6344 26.7788 20.6301 26.7492 20.6301L25.5782 20.598C25.3923 20.5934 25.2371 20.739 25.2326 20.9249C25.2281 21.1108 25.3736 21.266 25.5595 21.2705L25.5613 21.271L26.3436 21.2915C26.1778 21.7927 25.6828 22.1406 25.1235 22.0892C24.5236 22.0348 24.057 21.5198 24.0588 20.9176C24.0607 20.2563 24.6071 19.7311 25.2639 19.7495C25.4867 19.7561 25.6969 19.8242 25.8776 19.9435C26.0113 20.0325 26.1859 20.0202 26.3022 19.9096C26.4574 19.7641 26.4409 19.5095 26.2639 19.3912C25.8021 19.0784 25.2108 18.9849 24.623 19.172C24.1155 19.3315 23.7084 19.7188 23.5182 20.2153C23.0297 21.4947 23.9466 22.733 25.178 22.7676C26.1964 22.7963 27.0479 21.9924 27.0766 20.9739C27.0813 20.8314 26.9923 20.6933 26.8381 20.6441Z" fill="#025AE9"/>
<path opacity="0.4" fill-rule="evenodd" clip-rule="evenodd" d="M14.7692 22.7704C15.7889 22.7704 16.6154 21.9439 16.6154 20.9243C16.6154 19.9047 15.7889 19.0781 14.7692 19.0781C13.7496 19.0781 12.9231 19.9047 12.9231 20.9243C12.9231 21.9439 13.7496 22.7704 14.7692 22.7704ZM14.1539 23.3858C13.4741 23.3858 12.9231 23.9369 12.9231 24.6166V25.232H16.6154V24.6166C16.6154 23.9369 16.0644 23.3858 15.3846 23.3858H14.1539Z" fill="#025AE9"/>
</svg>
