<svg width="25" height="24" viewBox="0 0 25 24" fill="none" xmlns="http://www.w3.org/2000/svg">
<path fill-rule="evenodd" clip-rule="evenodd" d="M20.1364 5.6364C20.4878 5.28493 20.4878 4.71508 20.1364 4.36361C19.7849 4.01214 19.2151 4.01214 18.8636 4.36361L12.5 10.7272L6.13637 4.36361C5.7849 4.01214 5.21505 4.01214 4.86358 4.36361C4.51211 4.71508 4.51211 5.28493 4.86358 5.6364L11.2272 12L4.86358 18.3636C4.51211 18.7151 4.51211 19.2849 4.86358 19.6364C5.21505 19.9879 5.7849 19.9879 6.13637 19.6364L12.5 13.2728L18.8636 19.6364C19.2151 19.9879 19.7849 19.9879 20.1364 19.6364C20.4878 19.2849 20.4878 18.7151 20.1364 18.3636L13.7728 12L20.1364 5.6364Z" fill="#0A2757" fill-opacity="0.4"/>
</svg>
