<svg width="23" height="32" viewBox="0 0 23 32" fill="none" xmlns="http://www.w3.org/2000/svg">
<g clip-path="url(#clip0_4_628)">
<path fill-rule="evenodd" clip-rule="evenodd" d="M5.74313 26.5939C4.6413 26.5939 3.79132 25.77 3.79132 24.7325V13.3228H1.89583C0.848794 13.3228 0 12.474 0 11.427C0 10.3799 0.848794 9.53113 1.89583 9.53113H3.79132V5.73562C3.79132 4.66763 4.6413 3.84375 5.74313 3.84375H10.5842C15.1407 3.84375 18.177 6.0542 18.8273 9.53113H20.8543C21.9013 9.53113 22.7501 10.3799 22.7501 11.427C22.7501 12.474 21.9013 13.3228 20.8543 13.3228H18.6346C17.5956 16.816 14.1741 19.0105 10.1434 19.0105H7.66346V24.7325C7.66346 25.77 6.81347 26.5939 5.74313 26.5939ZM14.7347 9.53113C14.1077 8.0364 12.4953 7.26132 10.2694 7.26132H7.66346V9.53113H14.7347ZM7.66346 13.3228H14.4222C13.6591 14.6358 12.205 15.6234 10.2694 15.6234H7.66346V13.3228Z" fill="#2044A5"/>
</g>
<defs>
<clipPath id="clip0_4_628">
<rect width="22.75" height="32" fill="white"/>
</clipPath>
</defs>
</svg>
