<svg width="23" height="29" viewBox="0 0 23 29" fill="none" xmlns="http://www.w3.org/2000/svg">
<path fill-rule="evenodd" clip-rule="evenodd" d="M5.86813 25.5939C4.7663 25.5939 3.91632 24.77 3.91632 23.7325V12.3228H2.02083C0.973794 12.3228 0.125 11.474 0.125 10.427C0.125 9.37993 0.973794 8.53113 2.02083 8.53113H3.91632V4.73562C3.91632 3.66763 4.7663 2.84375 5.86813 2.84375H10.7092C15.2657 2.84375 18.302 5.0542 18.9523 8.53113H20.9793C22.0263 8.53113 22.8751 9.37993 22.8751 10.427C22.8751 11.474 22.0263 12.3228 20.9793 12.3228H18.7596C17.7206 15.816 14.2991 18.0105 10.2684 18.0105H7.78846V23.7325C7.78846 24.77 6.93847 25.5939 5.86813 25.5939ZM14.8597 8.53113C14.2327 7.0364 12.6203 6.26132 10.3944 6.26132H7.78846V8.53113H14.8597ZM7.78846 12.3228H14.5472C13.7841 13.6358 12.33 14.6234 10.3944 14.6234H7.78846V12.3228Z" fill="#0058E5"/>
</svg>
