<svg width="62" height="62" viewBox="0 0 62 62" fill="none" xmlns="http://www.w3.org/2000/svg">
<rect x="8.34616" y="48.8848" width="45.3077" height="4.76923" rx="0.970928" stroke="#D6F5FF" stroke-width="2.62308"/>
<path d="M13.1154 25.0386V48.8847" stroke="#D6F5FF" stroke-width="2.62308" stroke-linecap="round" stroke-linejoin="round"/>
<path d="M20.2692 25.0386V48.8847" stroke="#D6F5FF" stroke-width="2.62308" stroke-linecap="round" stroke-linejoin="round"/>
<path d="M27.4231 25.0386V48.8847" stroke="#D6F5FF" stroke-width="2.62308" stroke-linecap="round" stroke-linejoin="round"/>
<path d="M34.5769 25.0386V48.8847" stroke="#D6F5FF" stroke-width="2.62308" stroke-linecap="round" stroke-linejoin="round"/>
<path d="M41.7308 25.0386V48.8847" stroke="#D6F5FF" stroke-width="2.62308" stroke-linecap="round" stroke-linejoin="round"/>
<path d="M48.8846 25.0386V48.8847" stroke="#D6F5FF" stroke-width="2.62308" stroke-linecap="round" stroke-linejoin="round"/>
<path d="M9.53847 19.4744H13.3265C13.555 19.4744 13.7787 19.4087 13.9709 19.2853L30.3556 8.76014C30.7482 8.50795 31.2518 8.50795 31.6444 8.76014L48.0291 19.2853C48.2213 19.4087 48.445 19.4744 48.6735 19.4744H52.4615C53.12 19.4744 53.6539 20.0082 53.6539 20.6667V23.8462C53.6539 24.5047 53.12 25.0385 52.4615 25.0385H9.53847C8.87998 25.0385 8.34616 24.5047 8.34616 23.8462V20.6667C8.34616 20.0082 8.87997 19.4744 9.53847 19.4744Z" stroke="#D6F5FF" stroke-width="2.62308" stroke-linecap="round" stroke-linejoin="round"/>
<circle opacity="0.4" r="2.38462" transform="matrix(1 0 0 -1 31 19.0768)" fill="#D6F5FF"/>
</svg>
