<svg width="62" height="62" viewBox="0 0 62 62" fill="none" xmlns="http://www.w3.org/2000/svg">
<path opacity="0.4" fill-rule="evenodd" clip-rule="evenodd" d="M52.5808 22.6541C52.5808 19.9543 50.3921 17.7656 47.6923 17.7656L31.9009 17.7656L14.3077 17.7656C13.9373 17.7656 13.5766 17.8068 13.2298 17.8849L10.3901 17.8849C7.28578 17.8849 4.76923 20.4014 4.76923 23.5057L4.76923 41.731C4.76923 46.3405 8.50593 50.0772 13.1154 50.0772H28.0192L50.0769 50.0772C50.7354 50.0772 51.2692 49.5434 51.2692 48.8849C51.2692 48.2264 50.7354 47.6926 50.0769 47.6926L28.0192 47.6926H13.1154C9.82292 47.6926 7.15384 45.0235 7.15384 41.731L7.15384 23.5057C7.15384 21.8408 8.41117 20.4694 10.0281 20.2895C9.64013 20.9902 9.41922 21.7964 9.41922 22.6541L9.41922 40.5387C9.41922 43.2385 11.6079 45.4272 14.3077 45.4272L31 45.4272H47.6923C50.3921 45.4272 52.5808 43.2385 52.5808 40.5387V22.6541ZM47.6923 20.3887C48.9434 20.3887 49.9577 21.403 49.9577 22.6541V40.5387C49.9577 41.7898 48.9434 42.8041 47.6923 42.8041H31L14.3077 42.8041C13.0565 42.8041 12.0423 41.7898 12.0423 40.5387L12.0423 22.6541C12.0423 21.403 13.0566 20.3887 14.3077 20.3887L31.9009 20.3887L47.6923 20.3887Z" fill="#2B3990"/>
<path fill-rule="evenodd" clip-rule="evenodd" d="M11.9231 29.8072L0 19.0765L11.9231 8.3457L11.9231 11.9226L20.8654 11.9226C21.8531 11.9226 22.6538 12.7233 22.6538 13.7111L22.6538 24.4419C22.6538 25.4296 21.8531 26.2303 20.8654 26.2303H11.9231V29.8072ZM28.0088 36.9611C27.5051 36.9611 27.1165 36.5725 27.1165 36.0831V30.693H25.9242C25.435 30.693 25.0385 30.2964 25.0385 29.8072C25.0385 29.3181 25.435 28.9215 25.9242 28.9215H27.1165V27.1227C27.1165 26.6189 27.5051 26.2303 28.0088 26.2303H31.0889C33.1758 26.2303 34.5652 27.2766 34.8592 28.9215H35.4626C35.9518 28.9215 36.3484 29.3181 36.3484 29.8072C36.3484 30.2964 35.9518 30.693 35.4626 30.693H34.772C34.2998 32.3455 32.7334 33.3842 30.8874 33.3842H28.8868V36.0831C28.8868 36.5725 28.4982 36.9611 28.0088 36.9611ZM32.99 28.9215C32.7058 28.2109 31.9668 27.8423 30.945 27.8423H28.8868V28.9215H32.99ZM28.8868 30.693H32.8484C32.5008 31.3165 31.834 31.7866 30.945 31.7866H28.8868V30.693ZM62 42.9226L50.0769 32.1919V35.7688H41.1346C40.1469 35.7688 39.3462 36.5695 39.3462 37.5572V48.288C39.3462 49.2757 40.1469 50.0765 41.1346 50.0765H50.0769V53.6534L62 42.9226Z" fill="#2B3990"/>
</svg>
