<svg width="48" height="48" viewBox="0 0 48 48" fill="none" xmlns="http://www.w3.org/2000/svg">
<g opacity="0.4">
<path fill-rule="evenodd" clip-rule="evenodd" d="M6.33334 13C5.8445 13 5.42731 13.3534 5.34695 13.8356L4.01361 21.8356C3.96529 22.1256 4.04698 22.4221 4.23699 22.6464C4.42699 22.8707 4.70606 23 5.00001 23H8.00001V34H6.00001C5.44772 34 5.00001 34.4477 5.00001 35C5.00001 35.5523 5.44772 36 6.00001 36H12C12.5523 36 13 35.5523 13 35C13 34.4477 12.5523 34 12 34H10V23H13C13.294 23 13.573 22.8707 13.763 22.6464C13.953 22.4221 14.0347 22.1256 13.9864 21.8356L12.6531 13.8356C12.5727 13.3534 12.1555 13 11.6667 13H6.33334ZM11.8195 21H9.00001H6.18047L7.18047 15H10.8195L11.8195 21ZM18 22C18 21.4477 18.4477 21 19 21H27C27.5523 21 28 21.4477 28 22V26.8824V29H20V28C20 26.8954 19.1046 26 18 26V22ZM27 19C27.7684 19 28.4693 19.2889 29 19.7639C29.5308 19.2889 30.2317 19 31 19H39C40.6569 19 42 20.3431 42 22V26C43.1046 26 44 26.8954 44 28V29.6667V34C44 35.1046 43.1046 36 42 36H40C39.2597 36 38.6134 35.5978 38.2676 35H19.7324C19.3866 35.5978 18.7403 36 18 36H16C14.8954 36 14 35.1046 14 34V33.4V28C14 26.8954 14.8954 26 16 26V22C16 20.3431 17.3432 19 19 19H27ZM40 22V26C38.8954 26 38 26.8954 38 28V29H30V26.8824V22C30 21.4477 30.4477 21 31 21H39C39.5523 21 40 21.4477 40 22ZM38 31V33H20V31H38ZM40 33.4V30V28L42 28V29.6667V34H40V33.4ZM18 30V29.6667V28L16 28V33.4V34H18V30Z" fill="#1C6B9E"/>
</g>
</svg>
