<svg width="48" height="48" viewBox="0 0 48 48" fill="none" xmlns="http://www.w3.org/2000/svg">
<path opacity="0.4" fill-rule="evenodd" clip-rule="evenodd" d="M29.8644 7.90615C29.8308 7.54966 29.6092 7.23834 29.2834 7.08991C28.9575 6.94148 28.5772 6.9786 28.2862 7.18723L23.4173 10.6779C23.1263 10.8866 22.9691 11.2349 23.0051 11.5911C23.041 11.9474 23.2647 12.2572 23.5916 12.4034L29.018 14.8314C29.3427 14.9766 29.7201 14.9385 30.0091 14.7313C30.2982 14.5241 30.4554 14.1789 30.422 13.8248L29.8644 7.90615ZM25.9976 11.2889L28.0365 9.8271L28.2701 12.3057L25.9976 11.2889ZM7 12C7 11.4477 7.44772 11 8 11H13C13.5187 11 13.9513 11.3966 13.9962 11.9134L14.3516 16H40C40.3013 16 40.5866 16.1358 40.7765 16.3698C40.9663 16.6038 41.0406 16.9109 40.9786 17.2057L38.0352 31.2057C37.9379 31.6686 37.5296 32 37.0566 32H15.7429L15.9168 34H18.4963L18.5 34L18.5037 34H30.4963L30.5 34L30.5037 34H35C35.5523 34 36 34.4477 36 35C36 35.5523 35.5523 36 35 36H33.6632C33.8792 36.4546 34 36.9632 34 37.5C34 39.433 32.433 41 30.5 41C28.567 41 27 39.433 27 37.5C27 36.9632 27.1208 36.4546 27.3368 36H21.6632C21.8792 36.4546 22 36.9632 22 37.5C22 39.433 20.433 41 18.5 41C16.567 41 15 39.433 15 37.5C15 36.9632 15.1208 36.4546 15.3368 36H15C14.4813 36 14.0487 35.6034 14.0038 35.0866L12.0832 13H8C7.44772 13 7 12.5523 7 12ZM15.569 30H36.245L38.7679 18H14.5255L15.569 30ZM30.5 36L30.5024 36C31.3297 36.0013 32 36.6724 32 37.5C32 38.3284 31.3284 39 30.5 39C29.6716 39 29 38.3284 29 37.5C29 36.6724 29.6703 36.0013 30.4976 36L30.5 36ZM18.5 36L18.5024 36C19.3297 36.0013 20 36.6724 20 37.5C20 38.3284 19.3284 39 18.5 39C17.6716 39 17 38.3284 17 37.5C17 36.6724 17.6703 36.0013 18.4976 36L18.5 36ZM20 23.5C20 22.6716 20.6716 22 21.5 22C22.3284 22 23 22.6716 23 23.5C23 24.3284 22.3284 25 21.5 25C20.6716 25 20 24.3284 20 23.5ZM21.5 20C19.567 20 18 21.567 18 23.5C18 25.433 19.567 27 21.5 27C23.433 27 25 25.433 25 23.5C25 21.567 23.433 20 21.5 20ZM26.3081 26.6331C25.9094 26.251 25.8959 25.618 26.278 25.2193L30.9839 20.3082C31.366 19.9094 31.999 19.8959 32.3977 20.278L35.0719 22.8404C35.4707 23.2225 35.4842 23.8555 35.1021 24.2543L30.3962 29.1654C30.0141 29.5642 29.3811 29.5777 28.9823 29.1956L26.3081 26.6331ZM28.4139 25.8809L29.644 27.0597L32.9662 23.5926L31.7361 22.4139L28.4139 25.8809Z" fill="#1C6B9E"/>
</svg>
