<svg width="24" height="32" viewBox="0 0 24 32" fill="none" xmlns="http://www.w3.org/2000/svg">
<path fill-rule="evenodd" clip-rule="evenodd" d="M5.12 27.488C4.032 27.488 3.168 26.592 3.168 25.504V12.1958H1.5C0.671573 12.1958 0 11.5242 0 10.6958C0 9.86738 0.671573 9.1958 1.5 9.1958H3.168V5.984C3.168 4.864 4.032 4 5.12 4H12.288C16.6452 4 19.7144 5.99413 20.7427 9.1958H22.5C23.3284 9.1958 24 9.86738 24 10.6958C24 11.5242 23.3284 12.1958 22.5 12.1958H21.1121C20.9091 17.1572 16.8004 19.712 11.84 19.712H7.104V25.504C7.104 26.592 6.208 27.488 5.12 27.488ZM16.2874 9.1958C15.4038 8.11713 13.8903 7.552 11.968 7.552H7.104V9.1958H16.2874ZM7.104 12.1958H17.1427C16.9913 14.5385 15.0111 16.192 11.968 16.192H7.104V12.1958Z" fill="white"/>
</svg>
