<svg width="32" height="32" viewBox="0 0 32 32" fill="none" xmlns="http://www.w3.org/2000/svg">
<path fill-rule="evenodd" clip-rule="evenodd" d="M10.2972 14.8449C10.8035 12.0332 13.2627 9.90001 16.2201 9.90001C19.544 9.90001 22.2385 12.5945 22.2385 15.9183C22.2385 19.2422 19.544 21.9367 16.2201 21.9367C14.5359 21.9367 13.0147 21.246 11.9213 20.1303C11.5734 19.7752 11.0036 19.7695 10.6486 20.1173C10.2935 20.4652 10.2878 21.0351 10.6356 21.3901C12.0536 22.8371 14.0326 23.7367 16.2201 23.7367C20.5381 23.7367 24.0385 20.2363 24.0385 15.9183C24.0385 11.6004 20.5381 8.10001 16.2201 8.10001C12.2506 8.10001 8.97196 11.0583 8.46875 14.8906L7.68824 14.0906C7.34112 13.7348 6.77132 13.7278 6.41554 14.0749C6.05976 14.422 6.05274 14.9918 6.39985 15.3476L8.80609 17.8139C8.98157 17.9937 9.22425 18.092 9.47543 18.085C9.72661 18.078 9.96342 17.9663 10.1286 17.7769L12.2795 15.3106C12.6062 14.936 12.5673 14.3674 12.1927 14.0407C11.8181 13.7141 11.2496 13.7529 10.9229 14.1275L10.2972 14.8449Z" fill="white"/>
</svg>
