<svg width="32" height="32" viewBox="0 0 32 32" fill="none" xmlns="http://www.w3.org/2000/svg">
<path fill-rule="evenodd" clip-rule="evenodd" d="M17.4618 5.5668C16.6712 4.71992 15.3287 4.71992 14.538 5.5668L13.863 6.28977C13.393 6.79327 12.6969 7.01944 12.0206 6.8884L11.0496 6.70024C9.91221 6.47983 8.82606 7.26896 8.6842 8.41883L8.56309 9.40047C8.47875 10.0841 8.04855 10.6762 7.42443 10.9677L6.52826 11.3862C5.47851 11.8765 5.06364 13.1533 5.62475 14.167L6.10376 15.0323C6.43736 15.635 6.43736 16.3669 6.10376 16.9695L5.62475 17.8349C5.06364 18.8485 5.47851 20.1253 6.52826 20.6156L7.42443 21.0341C8.04855 21.3256 8.47875 21.9177 8.56309 22.6013L8.6842 23.583C8.82606 24.7328 9.91221 25.522 11.0496 25.3016L12.0206 25.1134C12.6969 24.9824 13.393 25.2085 13.863 25.712L14.538 26.435C15.3287 27.2819 16.6712 27.2819 17.4618 26.435L18.1368 25.712C18.6069 25.2085 19.303 24.9824 19.9792 25.1134L20.9502 25.3016C22.0877 25.522 23.1738 24.7328 23.3157 23.583L23.4368 22.6013C23.5211 21.9177 23.9513 21.3256 24.5754 21.0341L25.4716 20.6156C26.5213 20.1253 26.9362 18.8485 26.3751 17.8349L25.8961 16.9695C25.5625 16.3669 25.5625 15.635 25.8961 15.0323L26.3751 14.167C26.9362 13.1533 26.5213 11.8765 25.4716 11.3862L24.5754 10.9677C23.9513 10.6762 23.5211 10.0841 23.4368 9.40047L23.3157 8.41883C23.1738 7.26896 22.0877 6.47983 20.9502 6.70024L19.9792 6.8884C19.303 7.01944 18.6069 6.79327 18.1368 6.28977L17.4618 5.5668ZM20.1129 15.21C20.1928 15.2101 20.2751 15.2215 20.3534 15.2478C20.7711 15.381 21.0123 15.755 20.9995 16.141C20.9219 18.8994 18.6157 21.0766 15.8576 20.999C12.5223 20.9054 10.0392 17.5515 11.3623 14.0866C11.8773 12.7417 12.9797 11.6929 14.3542 11.261C15.9462 10.7541 17.5478 11.0073 18.7983 11.8545C19.2778 12.175 19.3225 12.8644 18.9022 13.2586C18.5872 13.5582 18.1142 13.5915 17.7521 13.3505C17.2627 13.0273 16.6934 12.8427 16.09 12.8251C14.3112 12.7751 12.8313 14.1976 12.8262 15.9885C12.8213 17.6195 14.085 19.0144 15.7097 19.1617C17.2246 19.3009 18.5652 18.3586 19.0142 17.0013L16.8955 16.9456L16.8906 16.9443C16.3871 16.9321 15.993 16.5118 16.0052 16.0083C16.0175 15.5048 16.4378 15.1107 16.9412 15.1229L20.1129 15.21Z" fill="#1972F9"/>
</svg>
