<svg width="32" height="32" viewBox="0 0 32 32" fill="none" xmlns="http://www.w3.org/2000/svg">
<path fill-rule="evenodd" clip-rule="evenodd" d="M17.462 5.5668C16.6713 4.71992 15.3288 4.71992 14.5381 5.5668L13.8632 6.28977C13.3931 6.79327 12.697 7.01944 12.0208 6.8884L11.0498 6.70024C9.91233 6.47983 8.82619 7.26896 8.68432 8.41883L8.56321 9.40047C8.47887 10.0841 8.04867 10.6762 7.42455 10.9677L6.52838 11.3862C5.47864 11.8765 5.06377 13.1533 5.62487 14.167L6.10388 15.0323C6.43748 15.635 6.43748 16.3669 6.10388 16.9695L5.62487 17.8349C5.06377 18.8485 5.47864 20.1253 6.52838 20.6156L7.42455 21.0341C8.04867 21.3256 8.47887 21.9177 8.56321 22.6013L8.68432 23.583C8.82619 24.7328 9.91233 25.522 11.0498 25.3016L12.0208 25.1134C12.697 24.9824 13.3931 25.2085 13.8632 25.712L14.5381 26.435C15.3288 27.2819 16.6713 27.2819 17.462 26.435L18.1369 25.712C18.607 25.2085 19.3031 24.9824 19.9793 25.1134L20.9504 25.3016C22.0878 25.522 23.1739 24.7328 23.3158 23.583L23.4369 22.6013C23.5212 21.9177 23.9514 21.3256 24.5756 21.0341L25.4717 20.6156C26.5215 20.1253 26.9363 18.8485 26.3752 17.8349L25.8962 16.9695C25.5626 16.3669 25.5626 15.635 25.8962 15.0323L26.3752 14.167C26.9363 13.1533 26.5215 11.8765 25.4717 11.3862L24.5756 10.9677C23.9514 10.6762 23.5212 10.0841 23.4369 9.40047L23.3158 8.41883C23.1739 7.26896 22.0878 6.47983 20.9504 6.70024L19.9793 6.8884C19.3031 7.01944 18.607 6.79327 18.1369 6.28977L17.462 5.5668ZM21.1364 13.6373C21.4879 13.2858 21.4879 12.716 21.1364 12.3645C20.785 12.013 20.2151 12.013 19.8637 12.3645L14.5001 17.7281L12.6364 15.8645C12.285 15.513 11.7151 15.513 11.3637 15.8645C11.0122 16.216 11.0122 16.7858 11.3637 17.1373L13.8637 19.6373C14.2151 19.9888 14.785 19.9888 15.1364 19.6373L21.1364 13.6373Z" fill="#1972F9"/>
</svg>
