<svg width="23" height="23" viewBox="0 0 23 23" fill="none" xmlns="http://www.w3.org/2000/svg">
<path fill-rule="evenodd" clip-rule="evenodd" d="M12.712 4.40261C12.172 3.82413 11.2549 3.82413 10.7148 4.40261L10.2538 4.89647C9.93268 5.2404 9.4572 5.39489 8.99527 5.30538L8.33198 5.17685C7.55503 5.02629 6.8131 5.56533 6.7162 6.35078L6.63347 7.02132C6.57586 7.4883 6.282 7.89277 5.85567 8.09187L5.24352 8.37776C4.52645 8.71264 4.24306 9.58482 4.62634 10.2772L4.95355 10.8683C5.18142 11.28 5.18142 11.7799 4.95355 12.1916L4.62634 12.7827C4.24306 13.4751 4.52645 14.3473 5.24351 14.6822L5.85567 14.9681C6.28199 15.1671 6.57586 15.5716 6.63347 16.0386L6.7162 16.7091C6.8131 17.4946 7.55503 18.0336 8.33198 17.8831L8.99527 17.7545C9.45719 17.665 9.93268 17.8195 10.2538 18.1635L10.7148 18.6573C11.2549 19.2358 12.172 19.2358 12.712 18.6573L13.1731 18.1635C13.4942 17.8195 13.9697 17.665 14.4316 17.7545L15.0949 17.8831C15.8719 18.0336 16.6138 17.4946 16.7107 16.7091L16.7934 16.0386C16.851 15.5716 17.1449 15.1671 17.5712 14.9681L18.1834 14.6822C18.9004 14.3473 19.1838 13.4751 18.8005 12.7827L18.4733 12.1916C18.2455 11.7799 18.2455 11.28 18.4733 10.8683L18.8005 10.2772C19.1838 9.58482 18.9004 8.71263 18.1834 8.37776L17.5712 8.09187C17.1449 7.89277 16.851 7.4883 16.7934 7.02132L16.7107 6.35078C16.6138 5.56533 15.8719 5.02629 15.0949 5.17685L14.4316 5.30538C13.9697 5.39489 13.4942 5.2404 13.1731 4.89647L12.712 4.40261ZM15.222 9.91543C15.4621 9.67534 15.4621 9.28609 15.222 9.04601C14.9819 8.80592 14.5927 8.80592 14.3526 9.04601L10.6888 12.7098L9.41582 11.4368C9.17574 11.1967 8.78649 11.1967 8.5464 11.4368C8.30632 11.6769 8.30632 12.0661 8.5464 12.3062L10.2541 14.0139C10.4942 14.254 10.8834 14.254 11.1235 14.0139L15.222 9.91543Z" fill="#1972F9"/>
</svg>
