<svg width="101" height="101" viewBox="0 0 101 101" fill="none" xmlns="http://www.w3.org/2000/svg">
<path fill-rule="evenodd" clip-rule="evenodd" d="M55.1141 17.5672C52.6186 14.8943 48.3812 14.8943 45.8858 17.5672L43.7554 19.8491C42.2717 21.4383 40.0747 22.1521 37.9403 21.7385L34.8755 21.1446C31.2856 20.449 27.8574 22.9397 27.4097 26.5689L27.0274 29.6672C26.7612 31.825 25.4034 33.6939 23.4335 34.6138L20.605 35.9348C17.2917 37.4821 15.9823 41.5121 17.7533 44.7115L19.2651 47.4427C20.3181 49.3448 20.3181 51.6549 19.2651 53.557L17.7533 56.2883C15.9823 59.4876 17.2917 63.5176 20.605 65.065L23.4335 66.3859C25.4034 67.3059 26.7612 69.1748 27.0274 71.3325L27.4097 74.4308C27.8574 78.0601 31.2856 80.5508 34.8755 79.8551L37.9403 79.2612C40.0747 78.8476 42.2717 79.5615 43.7554 81.1506L45.8858 83.4325C48.3812 86.1055 52.6186 86.1055 55.1141 83.4325L57.2445 81.1506C58.7281 79.5615 60.9252 78.8476 63.0595 79.2612L66.1243 79.8551C69.7143 80.5508 73.1425 78.0601 73.5902 74.4308L73.9725 71.3325C74.2387 69.1748 75.5965 67.3059 77.5664 66.3859L80.3949 65.065C83.7082 63.5176 85.0176 59.4876 83.2466 56.2883L81.7347 53.557C80.6818 51.6549 80.6818 49.3448 81.7347 47.4427L83.2466 44.7115C85.0176 41.5121 83.7082 37.4821 80.3949 35.9348L77.5664 34.6138C75.5965 33.6939 74.2387 31.825 73.9725 29.6672L73.5902 26.5689C73.1425 22.9397 69.7143 20.449 66.1243 21.1446L63.0595 21.7385C60.9252 22.1521 58.7281 21.4383 57.2445 19.8491L55.1141 17.5672ZM66.7117 43.0397C67.821 41.9304 67.821 40.1318 66.7117 39.0225C65.6024 37.9132 63.8038 37.9132 62.6944 39.0225L45.7656 55.9514L39.8836 50.0694C38.7742 48.96 36.9756 48.96 35.8663 50.0694C34.757 51.1787 34.757 52.9773 35.8663 54.0866L43.7569 61.9772C44.8663 63.0866 46.6649 63.0866 47.7742 61.9772L66.7117 43.0397Z" fill="#1972F9"/>
</svg>
