<svg width="32" height="32" viewBox="0 0 32 32" fill="none" xmlns="http://www.w3.org/2000/svg">
<path opacity="0.4" fill-rule="evenodd" clip-rule="evenodd" d="M17.2308 8.00015C17.2308 8.34002 16.9553 8.61553 16.6154 8.61553C16.2756 8.61553 16.0001 8.34002 16.0001 8.00015C16.0001 7.66028 16.2756 7.38477 16.6154 7.38477C16.9553 7.38477 17.2308 7.66028 17.2308 8.00015ZM17.2308 9.8463C17.2308 10.1862 16.9553 10.4617 16.6154 10.4617C16.2756 10.4617 16.0001 10.1862 16.0001 9.8463C16.0001 9.50644 16.2756 9.23092 16.6154 9.23092C16.9553 9.23092 17.2308 9.50644 17.2308 9.8463ZM14.7693 12.3078C15.1092 12.3078 15.3847 12.0323 15.3847 11.6925C15.3847 11.3526 15.1092 11.0771 14.7693 11.0771C14.4294 11.0771 14.1539 11.3526 14.1539 11.6925C14.1539 12.0323 14.4294 12.3078 14.7693 12.3078ZM7.38467 17.2309C7.72454 17.2309 8.00006 16.9554 8.00006 16.6155C8.00006 16.2757 7.72454 16.0002 7.38467 16.0002C7.0448 16.0002 6.76929 16.2757 6.76929 16.6155C6.76929 16.9554 7.0448 17.2309 7.38467 17.2309ZM11.077 17.2309C11.4168 17.2309 11.6924 16.9554 11.6924 16.6155C11.6924 16.2757 11.4168 16.0002 11.077 16.0002C10.7371 16.0002 10.4616 16.2757 10.4616 16.6155C10.4616 16.9554 10.7371 17.2309 11.077 17.2309ZM12.9231 19.0771C13.263 19.0771 13.5385 18.8016 13.5385 18.4617C13.5385 18.1218 13.263 17.8463 12.9231 17.8463C12.5833 17.8463 12.3077 18.1218 12.3077 18.4617C12.3077 18.8016 12.5833 19.0771 12.9231 19.0771ZM11.6924 18.4617C11.6924 18.8016 11.4168 19.0771 11.077 19.0771C10.7371 19.0771 10.4616 18.8016 10.4616 18.4617C10.4616 18.1218 10.7371 17.8463 11.077 17.8463C11.4168 17.8463 11.6924 18.1218 11.6924 18.4617ZM9.23083 19.0771C9.57069 19.0771 9.84621 18.8016 9.84621 18.4617C9.84621 18.1218 9.57069 17.8463 9.23083 17.8463C8.89096 17.8463 8.61544 18.1218 8.61544 18.4617C8.61544 18.8016 8.89096 19.0771 9.23083 19.0771ZM9.84621 16.6155C9.84621 16.9554 9.57069 17.2309 9.23083 17.2309C8.89096 17.2309 8.61544 16.9554 8.61544 16.6155C8.61544 16.2757 8.89096 16.0002 9.23083 16.0002C9.57069 16.0002 9.84621 16.2757 9.84621 16.6155ZM9.84621 20.3078C9.84621 20.6477 9.57069 20.9232 9.23083 20.9232C8.89096 20.9232 8.61544 20.6477 8.61544 20.3078C8.61544 19.968 8.89096 19.6925 9.23083 19.6925C9.57069 19.6925 9.84621 19.968 9.84621 20.3078ZM11.077 20.9232C11.4168 20.9232 11.6924 20.6477 11.6924 20.3078C11.6924 19.968 11.4168 19.6925 11.077 19.6925C10.7371 19.6925 10.4616 19.968 10.4616 20.3078C10.4616 20.6477 10.7371 20.9232 11.077 20.9232ZM13.5385 20.3078C13.5385 20.6477 13.263 20.9232 12.9231 20.9232C12.5833 20.9232 12.3077 20.6477 12.3077 20.3078C12.3077 19.968 12.5833 19.6925 12.9231 19.6925C13.263 19.6925 13.5385 19.968 13.5385 20.3078ZM14.7693 24.6155C15.1092 24.6155 15.3847 24.34 15.3847 24.0002C15.3847 23.6603 15.1092 23.3848 14.7693 23.3848C14.4294 23.3848 14.1539 23.6603 14.1539 24.0002C14.1539 24.34 14.4294 24.6155 14.7693 24.6155ZM15.3847 16.6155C15.3847 16.9554 15.1092 17.2309 14.7693 17.2309C14.4294 17.2309 14.1539 16.9554 14.1539 16.6155C14.1539 16.2757 14.4294 16.0002 14.7693 16.0002C15.1092 16.0002 15.3847 16.2757 15.3847 16.6155ZM18.4616 10.4617C18.8015 10.4617 19.077 10.1862 19.077 9.8463C19.077 9.50644 18.8015 9.23092 18.4616 9.23092C18.1217 9.23092 17.8462 9.50644 17.8462 9.8463C17.8462 10.1862 18.1217 10.4617 18.4616 10.4617ZM18.4616 8.61553C18.8015 8.61553 19.077 8.34002 19.077 8.00015C19.077 7.66028 18.8015 7.38477 18.4616 7.38477C18.1217 7.38477 17.8462 7.66028 17.8462 8.00015C17.8462 8.34002 18.1217 8.61553 18.4616 8.61553ZM22.7693 11.6925C22.7693 12.0323 22.4938 12.3078 22.1539 12.3078C21.814 12.3078 21.5385 12.0323 21.5385 11.6925C21.5385 11.3526 21.814 11.0771 22.1539 11.0771C22.4938 11.0771 22.7693 11.3526 22.7693 11.6925ZM22.1539 10.4617C22.4938 10.4617 22.7693 10.1862 22.7693 9.8463C22.7693 9.50644 22.4938 9.23092 22.1539 9.23092C21.814 9.23092 21.5385 9.50644 21.5385 9.8463C21.5385 10.1862 21.814 10.4617 22.1539 10.4617ZM20.9231 13.5386C20.9231 13.8785 20.6476 14.154 20.3077 14.154C19.9679 14.154 19.6924 13.8785 19.6924 13.5386C19.6924 13.1987 19.9679 12.9232 20.3077 12.9232C20.6476 12.9232 20.9231 13.1987 20.9231 13.5386ZM18.4616 16.0002C18.8015 16.0002 19.077 15.7246 19.077 15.3848C19.077 15.0449 18.8015 14.7694 18.4616 14.7694C18.1217 14.7694 17.8462 15.0449 17.8462 15.3848C17.8462 15.7246 18.1217 16.0002 18.4616 16.0002ZM20.9231 15.3848C20.9231 15.7246 20.6476 16.0002 20.3077 16.0002C19.9679 16.0002 19.6924 15.7246 19.6924 15.3848C19.6924 15.0449 19.9679 14.7694 20.3077 14.7694C20.6476 14.7694 20.9231 15.0449 20.9231 15.3848ZM22.1539 16.0002C22.4938 16.0002 22.7693 15.7246 22.7693 15.3848C22.7693 15.0449 22.4938 14.7694 22.1539 14.7694C21.814 14.7694 21.5385 15.0449 21.5385 15.3848C21.5385 15.7246 21.814 16.0002 22.1539 16.0002ZM22.7693 13.5386C22.7693 13.8785 22.4938 14.154 22.1539 14.154C21.814 14.154 21.5385 13.8785 21.5385 13.5386C21.5385 13.1987 21.814 12.9232 22.1539 12.9232C22.4938 12.9232 22.7693 13.1987 22.7693 13.5386ZM24.0001 14.154C24.3399 14.154 24.6154 13.8785 24.6154 13.5386C24.6154 13.1987 24.3399 12.9232 24.0001 12.9232C23.6602 12.9232 23.3847 13.1987 23.3847 13.5386C23.3847 13.8785 23.6602 14.154 24.0001 14.154ZM24.6154 11.6925C24.6154 12.0323 24.3399 12.3078 24.0001 12.3078C23.6602 12.3078 23.3847 12.0323 23.3847 11.6925C23.3847 11.3526 23.6602 11.0771 24.0001 11.0771C24.3399 11.0771 24.6154 11.3526 24.6154 11.6925ZM24.0001 16.0002C24.3399 16.0002 24.6154 15.7246 24.6154 15.3848C24.6154 15.0449 24.3399 14.7694 24.0001 14.7694C23.6602 14.7694 23.3847 15.0449 23.3847 15.3848C23.3847 15.7246 23.6602 16.0002 24.0001 16.0002ZM19.077 13.5386C19.077 13.8785 18.8015 14.154 18.4616 14.154C18.1217 14.154 17.8462 13.8785 17.8462 13.5386C17.8462 13.1987 18.1217 12.9232 18.4616 12.9232C18.8015 12.9232 19.077 13.1987 19.077 13.5386ZM16.6154 24.6155C16.9553 24.6155 17.2308 24.34 17.2308 24.0002C17.2308 23.6603 16.9553 23.3848 16.6154 23.3848C16.2756 23.3848 16.0001 23.6603 16.0001 24.0002C16.0001 24.34 16.2756 24.6155 16.6154 24.6155ZM20.9231 17.2309C20.9231 17.5708 20.6476 17.8463 20.3077 17.8463C19.9679 17.8463 19.6924 17.5708 19.6924 17.2309C19.6924 16.8911 19.9679 16.6155 20.3077 16.6155C20.6476 16.6155 20.9231 16.8911 20.9231 17.2309ZM11.077 22.7694C11.4168 22.7694 11.6924 22.4939 11.6924 22.154C11.6924 21.8141 11.4168 21.5386 11.077 21.5386C10.7371 21.5386 10.4616 21.8141 10.4616 22.154C10.4616 22.4939 10.7371 22.7694 11.077 22.7694ZM15.3847 18.4617C15.3847 18.8016 15.1092 19.0771 14.7693 19.0771C14.4294 19.0771 14.1539 18.8016 14.1539 18.4617C14.1539 18.1218 14.4294 17.8463 14.7693 17.8463C15.1092 17.8463 15.3847 18.1218 15.3847 18.4617ZM16.6154 22.7694C16.9553 22.7694 17.2308 22.4939 17.2308 22.154C17.2308 21.8141 16.9553 21.5386 16.6154 21.5386C16.2756 21.5386 16.0001 21.8141 16.0001 22.154C16.0001 22.4939 16.2756 22.7694 16.6154 22.7694Z" fill="#025AE9"/>
<path fill-rule="evenodd" clip-rule="evenodd" d="M7.99989 13.5398C11.0587 13.5398 13.5383 11.0602 13.5383 8.00135C13.5383 7.00813 13.2769 6.07597 12.8191 5.26994C12.8368 5.30105 12.8541 5.33235 12.8712 5.36383C13.1402 5.2347 13.2823 4.9253 13.1931 4.6309C13.0946 4.30563 12.751 4.12184 12.4257 4.22038C12.3273 4.2502 12.2294 4.28123 12.132 4.31343C11.1178 3.17781 9.64231 2.46289 7.99989 2.46289C4.94108 2.46289 2.46143 4.94254 2.46143 8.00135C2.46143 11.0602 4.94108 13.5398 7.99989 13.5398ZM8.69656 4.98693C8.69656 4.71504 8.47615 4.49462 8.20425 4.49462C7.93236 4.49462 7.71194 4.71504 7.71194 4.98693V5.41381L7.71211 5.42689C6.88018 5.5195 6.30793 6.08955 6.30793 6.91481V6.92904C6.30793 7.91797 6.91995 8.19545 7.86825 8.45157C8.65514 8.66501 8.81655 8.80731 8.81655 9.08478V9.09901C8.81655 9.39071 8.56098 9.56857 8.13727 9.56857C7.67994 9.56857 7.28986 9.39782 6.93341 9.12035C6.86615 9.07055 6.77199 9.02075 6.63748 9.02075C6.36846 9.02075 6.15325 9.2413 6.15325 9.52589C6.15325 9.69664 6.23395 9.85316 6.34829 9.93854C6.75854 10.2501 7.2305 10.4399 7.71268 10.5078C7.71219 10.5168 7.71194 10.5259 7.71194 10.535V10.9619C7.71194 11.2338 7.93236 11.4542 8.20425 11.4542C8.47615 11.4542 8.69656 11.2338 8.69656 10.9619V10.535C8.69656 10.5127 8.69508 10.4907 8.6922 10.4692C9.39162 10.2942 9.84555 9.78142 9.84555 8.99229V8.97806C9.84555 8.11007 9.30751 7.74722 8.35249 7.48398C7.5387 7.26342 7.33694 7.1567 7.33694 6.82943V6.8152C7.33694 6.5733 7.54543 6.38121 7.94223 6.38121C8.26506 6.38121 8.58788 6.50216 8.93088 6.7156C9.01159 6.7654 9.0923 6.79386 9.19318 6.79386C9.4622 6.79386 9.67742 6.5733 9.67742 6.28872C9.67742 6.07528 9.56308 5.92587 9.44875 5.85472C9.21715 5.69917 8.96346 5.58188 8.68766 5.50749C8.6935 5.47716 8.69656 5.44584 8.69656 5.41381V4.98693ZM19.1276 26.6382C19.3332 27.0173 19.5817 27.3696 19.8666 27.6887C19.7693 27.7209 19.6714 27.7519 19.5731 27.7817C19.2478 27.8803 18.9042 27.6965 18.8057 27.3712C18.7165 27.0768 18.8586 26.7674 19.1276 26.6382ZM27.6872 19.8681C27.7193 19.7708 27.7503 19.673 27.7801 19.5747C27.8786 19.2495 27.6948 18.9059 27.3696 18.8074C27.0752 18.7182 26.7659 18.8602 26.6367 19.1291C25.8527 18.7038 24.9545 18.4623 23.9999 18.4623C20.9411 18.4623 18.4614 20.9419 18.4614 24.0008C18.4614 27.0596 20.9411 29.5392 23.9999 29.5392C27.0587 29.5392 29.5383 27.0596 29.5383 24.0008C29.5383 22.358 28.8231 20.8823 27.6872 19.8681ZM5.36195 12.8734C4.98298 12.6677 4.6307 12.4191 4.31163 12.1341C4.27948 12.2313 4.24851 12.3291 4.21873 12.4274C4.12018 12.7526 4.30398 13.0962 4.62924 13.1947C4.92347 13.2839 5.23268 13.142 5.36195 12.8734ZM14.7933 3.75175C15.1903 3.71311 15.5926 3.69336 15.9994 3.69336C16.4062 3.69336 16.8085 3.71311 17.2055 3.75175C17.5438 3.78467 17.7913 4.08558 17.7584 4.42385C17.7255 4.76212 17.4246 5.00965 17.0863 4.97673C16.7289 4.94195 16.3663 4.92413 15.9994 4.92413C15.6325 4.92413 15.2699 4.94195 14.9125 4.97673C14.5742 5.00965 14.2733 4.76212 14.2404 4.42385C14.2075 4.08558 14.455 3.78467 14.7933 3.75175ZM18.8057 4.6309C18.9042 4.30563 19.2478 4.12184 19.5731 4.22038C20.3518 4.45631 21.0978 4.76728 21.8027 5.14481C22.1023 5.30528 22.215 5.67824 22.0546 5.97784C21.8941 6.27744 21.5211 6.39022 21.2215 6.22975C20.5874 5.89008 19.9164 5.61042 19.2162 5.39828C18.8909 5.29973 18.7072 4.95616 18.8057 4.6309ZM22.9416 6.57177C23.1573 6.30917 23.5451 6.27119 23.8077 6.48695C24.4304 6.99855 25.0019 7.57008 25.5135 8.19275C25.7293 8.45535 25.6913 8.84314 25.4287 9.0589C25.1661 9.27465 24.7783 9.23668 24.5625 8.97408C24.1018 8.41334 23.5871 7.89862 23.0264 7.43791C22.7638 7.22215 22.7258 6.83437 22.9416 6.57177ZM26.0226 9.94588C26.3222 9.78541 26.6952 9.8982 26.8556 10.1978C27.2332 10.9026 27.5441 11.6486 27.7801 12.4274C27.8786 12.7526 27.6948 13.0962 27.3696 13.1948C27.0443 13.2933 26.7007 13.1095 26.6022 12.7842C26.39 12.084 26.1104 11.4131 25.7707 10.7789C25.6102 10.4793 25.723 10.1064 26.0226 9.94588ZM27.5766 14.2421C27.9149 14.2092 28.2158 14.4567 28.2487 14.795C28.2873 15.1919 28.3071 15.5943 28.3071 16.0011C28.3071 16.4078 28.2873 16.8102 28.2487 17.2071C28.2158 17.5454 27.9149 17.793 27.5766 17.76C27.2383 17.7271 26.9908 17.4262 27.0237 17.0879C27.0585 16.7305 27.0763 16.368 27.0763 16.0011C27.0763 15.6341 27.0585 15.2716 27.0237 14.9142C26.9908 14.5759 27.2383 14.275 27.5766 14.2421ZM4.4222 14.2421C4.76046 14.275 5.008 14.5759 4.97508 14.9142C4.94029 15.2716 4.92248 15.6341 4.92248 16.0011C4.92248 16.368 4.94029 16.7305 4.97508 17.0879C5.008 17.4262 4.76046 17.7271 4.4222 17.76C4.08393 17.793 3.78302 17.5454 3.7501 17.2071C3.71146 16.8102 3.69171 16.4078 3.69171 16.0011C3.69171 15.5943 3.71146 15.1919 3.7501 14.795C3.78302 14.4567 4.08393 14.2092 4.4222 14.2421ZM4.62924 18.8074C4.95451 18.7088 5.29808 18.8926 5.39662 19.2179C5.60877 19.9181 5.88843 20.589 6.2281 21.2232C6.38857 21.5228 6.27578 21.8958 5.97618 22.0562C5.67659 22.2167 5.30363 22.1039 5.14316 21.8043C4.76563 21.0995 4.45466 20.3535 4.21873 19.5747C4.12018 19.2495 4.30398 18.9059 4.62924 18.8074ZM6.57011 22.9432C6.83271 22.7275 7.2205 22.7654 7.43626 23.028C7.89697 23.5888 8.41169 24.1035 8.97243 24.5642C9.23503 24.78 9.273 25.1677 9.05724 25.4303C8.84149 25.6929 8.4537 25.7309 8.1911 25.5152C7.56843 25.0036 6.9969 24.432 6.4853 23.8094C6.26954 23.5468 6.30751 23.159 6.57011 22.9432ZM9.94423 26.0243C10.1047 25.7247 10.4777 25.6119 10.7773 25.7724C11.4114 26.112 12.0824 26.3917 12.7826 26.6038C13.1079 26.7024 13.2916 27.0459 13.1931 27.3712C13.0946 27.6965 12.751 27.8803 12.4257 27.7817C11.647 27.5458 10.901 27.2348 10.1961 26.8573C9.89655 26.6968 9.78376 26.3239 9.94423 26.0243ZM14.2404 27.5783C14.2733 27.24 14.5743 26.9925 14.9125 27.0254C15.2699 27.0602 15.6325 27.078 15.9994 27.078C16.3663 27.078 16.7289 27.0602 17.0863 27.0254C17.4246 26.9925 17.7255 27.24 17.7584 27.5783C17.7913 27.9165 17.5438 28.2174 17.2055 28.2504C16.8085 28.289 16.4062 28.3087 15.9994 28.3087C15.5926 28.3087 15.1903 28.289 14.7933 28.2504C14.455 28.2174 14.2075 27.9165 14.2404 27.5783ZM22.1433 21.8858C22.1433 21.5799 22.3912 21.332 22.6971 21.332H24.4906C25.4515 21.332 26.2596 21.9938 26.4804 22.8887H26.7302C27.0021 22.8887 27.2225 23.1091 27.2225 23.381C27.2225 23.6529 27.0021 23.8733 26.7302 23.8733H26.4806C26.2605 24.7665 25.454 25.4308 24.4906 25.4308H23.2522V26.73C23.2522 27.0358 23.0043 27.2838 22.6984 27.2838C22.3925 27.2838 22.1445 27.0358 22.1445 26.73V24.9148C22.1437 24.9023 22.1433 24.8897 22.1433 24.8769C22.1433 24.8642 22.1437 24.8516 22.1445 24.839V23.8733H21.8841C21.6122 23.8733 21.3918 23.6529 21.3918 23.381C21.3918 23.1091 21.6122 22.8887 21.8841 22.8887H22.1445V21.9351L22.1446 21.9248C22.1437 21.9119 22.1433 21.8989 22.1433 21.8858ZM23.2522 23.8733V24.3231H24.4906C24.8307 24.3231 25.1283 24.1429 25.2938 23.8733H23.2522ZM25.2933 22.8887H23.2522V22.4397H24.4906C24.8298 22.4397 25.1275 22.6191 25.2933 22.8887Z" fill="#025AE9"/>
</svg>
