<svg width="32" height="32" viewBox="0 0 32 32" fill="none" xmlns="http://www.w3.org/2000/svg">
<path opacity="0.4" fill-rule="evenodd" clip-rule="evenodd" d="M12.9231 25.8459C12.9231 25.506 13.2511 25.2305 13.6557 25.2305H18.3443C18.7489 25.2305 19.0769 25.506 19.0769 25.8459C19.0769 26.1857 18.7489 26.4612 18.3443 26.4612H13.6557C13.2511 26.4612 12.9231 26.1857 12.9231 25.8459Z" fill="#025AE9"/>
<path fill-rule="evenodd" clip-rule="evenodd" d="M10.2855 2.39844C8.64928 2.39844 7.32286 3.72485 7.32286 5.36107V7.9988H3.69195C3.01222 7.9988 2.46118 8.54983 2.46118 9.22957V15.9988C2.46118 16.6785 3.01221 17.2296 3.69195 17.2296H7.32286V17.2375V17.2579V17.2783V17.2986V17.319V17.3394V17.3599V17.3803V17.4007V17.4212V17.4417V17.4621V17.4826V17.5031V17.5237V17.5442V17.5647V17.5853V17.6059V17.6264V17.647V17.6676V17.6882V17.7089V17.7295V17.7501V17.7708V17.7915V17.8121V17.8328V17.8535V17.8742V17.895V17.9157V17.9364V17.9572V17.9779V17.9987V18.0195V18.0403V18.0611V18.0819V18.1027V18.1235V18.1443V18.1652V18.186V18.2069V18.2278V18.2486V18.2695V18.2904V18.3113V18.3322V18.3531V18.3741V18.395V18.4159V18.4369V18.4578V18.4788V18.4998V18.5208V18.5417V18.5627V18.5837V18.6047V18.6257V18.6468V18.6678V18.6888V18.7099V18.7309V18.7519V18.773V18.7941V18.8151V18.8362V18.8573V18.8784V18.8994V18.9205V18.9416V18.9627V18.9838V19.0049V19.0261V19.0472V19.0683V19.0894V19.1106V19.1317V19.1528V19.174V19.1951V19.2163V19.2374V19.2586V19.2798V19.3009V19.3221V19.3433V19.3645V19.3856V19.4068V19.428V19.4492V19.4704V19.4916V19.5127V19.5339V19.5551V19.5763V19.5975V19.6187V19.6399V19.6611V19.6823V19.7036V19.7248V19.746V19.7672V19.7884V19.8096V19.8308V19.852V19.8732V19.8944V19.9157V19.9369V19.9581V19.9793V20.0005V20.0217V20.0429V20.0641V20.0854V20.1066V20.1278V20.149V20.1702V20.1914V20.2126V20.2338V20.255V20.2762V20.2974V20.3186V20.3398V20.361V20.3822V20.4034V20.4245V20.4457V20.4669V20.4881V20.5093V20.5304V20.5516V20.5728V20.5939V20.6151V20.6363V20.6574V20.6786V20.6997V20.7208V20.742V20.7631V20.7842V20.8054V20.8265V20.8476V20.8687V20.8898V20.9109V20.932V20.9531V20.9742V20.9953V21.0164V21.0374V21.0585V21.0796V21.1006V21.1217V21.1427V21.1637V21.1848V21.2058V21.2268V21.2478V21.2688V21.2898V21.3108V21.3318V21.3528V21.3738V21.3947V21.4157V21.4366V21.4576V21.4785V21.4994V21.5203V21.5413V21.5622V21.5831V21.6039V21.6248V21.6457V21.6665V21.6874V21.7082V21.7291V21.7499V21.7707V21.7915V21.8123V21.8331V21.8539V21.8747V21.8954V21.9162V21.9369V21.9576V21.9784V21.9991V22.0198V22.0405V22.0611V22.0818V22.1025V22.1231V22.1438V22.1644V22.185V22.2056V22.2262V22.2468V22.2673V22.2879V22.3084V22.329V22.3495V22.37V22.3905V22.411V22.4314V22.4519V22.4723V22.4928V22.5132V22.5336V22.554V22.5744V22.5948V22.6151V22.6354V22.6558V22.6761V22.6964V22.7167V22.7369V22.7572V22.7774V22.7977V22.8179V22.8381V22.8583V22.8785V22.8986V22.9187V22.9389V22.959V22.9791V22.9992V23.0192V23.0393V23.0593V23.0793V23.0993V23.1193V23.1393V23.1592V23.1792V23.1991V23.219V23.2389V23.2588V23.2786V23.2985V23.3183V23.3381V23.3579V23.3776V23.3974V23.4171V23.4368V23.4565V23.4762V23.4959V23.5155V23.5352V23.5548V23.5744V23.5939V23.6135V23.633V23.6525V23.672V23.6915V23.711V23.7304V23.7498V23.7692V23.7886V23.808V23.8273V23.8466V23.8659V23.8852V23.9045V23.9237V23.9429V23.9621V23.9813V24.0005V24.0196V24.0387V24.0578V24.0769V24.0959V24.115V24.134V24.153V24.1719V24.1909V24.2098V24.2287V24.2476V24.2664V24.2853V24.3041V24.3229V24.3416V24.3604V24.3791V24.3978V24.4165V24.4351V24.4538V24.4724V24.491V24.5095V24.528V24.5466V24.5651V24.5835V24.602V24.6204V24.6388V24.6571V24.6755V24.6938V24.7121V24.7304V24.7486V24.7668V24.785V24.8032V24.8213V24.8394V24.8575V24.8756V24.8936V24.9117V24.9296V24.9476V24.9655V24.9834V25.0013V25.0192V25.037V25.0548V25.0726V25.0904V25.1081V25.1258V25.1434V25.1611V25.1787V25.1963V25.2138V25.2314V25.2489V25.2664V25.2838V25.3012V25.3186V25.336V25.3533V25.3706V25.3879V25.4051V25.4224V25.4396V25.4567V25.4739V25.491V25.508V25.5251V25.5421V25.5591V25.576V25.593V25.6098V25.6267V25.6435V25.6604V25.6771V25.6939V25.7106V25.7273V25.7439V25.7605V25.7771V25.7937V25.8102V25.8267V25.8432V25.8596V25.876V25.8924V25.9087V25.925V25.9413V25.9575V25.9737V25.9899V26.006V26.0221V26.0382V26.0543V26.0703V26.0863V26.1022V26.1181V26.134V26.1498V26.1656V26.1814V26.1972V26.2129V26.2286V26.2442V26.2598V26.2754V26.2909V26.3064V26.3219V26.3373V26.3527V26.3681V26.3834V26.3987V26.414V26.4292V26.4444V26.4595V26.4746V26.4897V26.5048V26.5198V26.5348V26.5497V26.5646V26.5795V26.5943V26.6091V26.6238V26.6385C7.32286 28.2758 8.65033 29.5984 10.2855 29.5984H21.7141C23.3503 29.5984 24.6767 28.272 24.6767 26.6358V6.80869V5.36108C24.6767 3.72486 23.3503 2.39844 21.7141 2.39844H10.2855ZM8.6767 17.2296V17.2375V17.2579V17.2783V17.2986V17.319V17.3394V17.3599V17.3803V17.4007V17.4212V17.4417V17.4621V17.4826V17.5031V17.5237V17.5442V17.5647V17.5853V17.6059V17.6264V17.647V17.6676V17.6882V17.7089V17.7295V17.7501V17.7708V17.7915V17.8121V17.8328V17.8535V17.8742V17.895V17.9157V17.9364V17.9572V17.9779V17.9987V18.0195V18.0403V18.0611V18.0819V18.1027V18.1235V18.1443V18.1652V18.186V18.2069V18.2278V18.2486V18.2695V18.2904V18.3113V18.3322V18.3531V18.3741V18.395V18.4159V18.4369V18.4578V18.4788V18.4998V18.5208V18.5417V18.5627V18.5837V18.6047V18.6257V18.6468V18.6678V18.6888V18.7099V18.7309V18.7519V18.773V18.7941V18.8151V18.8362V18.8573V18.8784V18.8994V18.9205V18.9416V18.9627V18.9838V19.0049V19.0261V19.0472V19.0683V19.0894V19.1106V19.1317V19.1528V19.174V19.1951V19.2163V19.2374V19.2586V19.2798V19.3009V19.3221V19.3433V19.3645V19.3856V19.4068V19.428V19.4492V19.4704V19.4916V19.5127V19.5339V19.5551V19.5763V19.5975V19.6187V19.6399V19.6611V19.6823V19.7036V19.7248V19.746V19.7672V19.7884V19.8096V19.8308V19.852V19.8732V19.8944V19.9157V19.9369V19.9581V19.9793V20.0005V20.0217V20.0429V20.0641V20.0854V20.1066V20.1278V20.149V20.1702V20.1914V20.2126V20.2338V20.255V20.2762V20.2974V20.3186V20.3398V20.361V20.3822V20.4034V20.4245V20.4457V20.4669V20.4881V20.5093V20.5304V20.5516V20.5728V20.5939V20.6151V20.6363V20.6574V20.6786V20.6997V20.7208V20.742V20.7631V20.7842V20.8054V20.8265V20.8476V20.8687V20.8898V20.9109V20.932V20.9531V20.9742V20.9953V21.0164V21.0374V21.0585V21.0796V21.1006V21.1217V21.1427V21.1637V21.1848V21.2058V21.2268V21.2478V21.2688V21.2898V21.3108V21.3318V21.3528V21.3738V21.3947V21.4157V21.4366V21.4576V21.4785V21.4994V21.5203V21.5413V21.5622V21.5831V21.6039V21.6248V21.6457V21.6665V21.6874V21.7082V21.7291V21.7499V21.7707V21.7915V21.8123V21.8331V21.8539V21.8747V21.8954V21.9162V21.9369V21.9576V21.9784V21.9991V22.0198V22.0405V22.0611V22.0818V22.1025V22.1231V22.1438V22.1644V22.185V22.2056V22.2262V22.2468V22.2673V22.2879V22.3084V22.329V22.3495V22.37V22.3905V22.411V22.4314V22.4519V22.4723V22.4928V22.5132V22.5336V22.554V22.5744V22.5948V22.6151V22.6354V22.6558V22.6761V22.6964V22.7167V22.7369V22.7572V22.7774V22.7977V22.8179V22.8381V22.8583V22.8785V22.8986V22.9187V22.9389V22.959V22.9791V22.9992V23.0192V23.0393V23.0593V23.0793V23.0993V23.1193V23.1393V23.1592V23.1792V23.1991V23.219V23.2389V23.2588V23.2786V23.2985V23.3183V23.3381V23.3579V23.3776V23.3974V23.4171V23.4368V23.4565V23.4762V23.4959V23.5155V23.5352V23.5548V23.5744V23.5939V23.6135V23.633V23.6525V23.672V23.6915V23.711V23.7304V23.7498V23.7692V23.7886V23.808V23.8273V23.8466V23.8659V23.8852V23.9045V23.9237V23.9429V23.9621V23.9813V24.0005V24.0196V24.0387V24.0578V24.0769V24.0959V24.115V24.134V24.153V24.1719V24.1909V24.2098V24.2287V24.2476V24.2664V24.2853V24.3041V24.3229V24.3416V24.3604V24.3791V24.3978V24.4165V24.4351V24.4538V24.4724V24.491V24.5095V24.528V24.5466V24.5651V24.5835V24.602V24.6204V24.6388V24.6571V24.6755V24.6938V24.7121V24.7304V24.7486V24.7668V24.785V24.8032V24.8213V24.8394V24.8575V24.8756V24.8936V24.9117V24.9296V24.9476V24.9655V24.9834V25.0013V25.0192V25.037V25.0548V25.0726V25.0904V25.1081V25.1258V25.1434V25.1611V25.1787V25.1963V25.2138V25.2314V25.2489V25.2664V25.2838V25.3012V25.3186V25.336V25.3533V25.3706V25.3879V25.4051V25.4224V25.4396V25.4567V25.4739V25.491V25.508V25.5251V25.5421V25.5591V25.576V25.593V25.6098V25.6267V25.6435V25.6604V25.6771V25.6939V25.7106V25.7273V25.7439V25.7605V25.7771V25.7937V25.8102V25.8267V25.8432V25.8596V25.876V25.8924V25.9087V25.925V25.9413V25.9575V25.9737V25.9899V26.006V26.0221V26.0382V26.0543V26.0703V26.0863V26.1022V26.1181V26.134V26.1498V26.1656V26.1814V26.1972V26.2129V26.2286V26.2442V26.2598V26.2754V26.2909V26.3064V26.3219V26.3373V26.3527V26.3681V26.3834V26.3987V26.414V26.4292V26.4444V26.4595V26.4746V26.4897V26.5048V26.5198V26.5348V26.5497V26.5646V26.5795V26.5943V26.6091V26.6238V26.6385C8.6767 27.526 9.39593 28.2446 10.2855 28.2446H21.7141C22.6026 28.2446 23.3229 27.5243 23.3229 26.6358V6.80869V5.36108C23.3229 4.47256 22.6026 3.75228 21.7141 3.75228H10.2855C9.39698 3.75228 8.6767 4.47256 8.6767 5.36107V7.9988H12.9227V6.15349L19.0766 12.615L12.9227 19.0766V17.2296H8.6767ZM7.84492 15.383C7.58492 15.383 7.38435 15.1824 7.38435 14.9298V12.1485H6.76896C6.51649 12.1485 6.31182 11.9439 6.31182 11.6914C6.31182 11.4389 6.51649 11.2342 6.76896 11.2342H7.38435V10.3051C7.38435 10.0451 7.58492 9.8445 7.84492 9.8445H9.43463C10.512 9.8445 11.2292 10.3848 11.3807 11.2342H11.692C11.9445 11.2342 12.1492 11.4389 12.1492 11.6914C12.1492 11.9439 11.9445 12.1485 11.692 12.1485H11.3354C11.0914 13.001 10.2831 13.5368 9.33063 13.5368H8.29806V14.9298C8.29806 15.1824 8.09749 15.383 7.84492 15.383ZM10.4161 11.2342C10.2697 10.867 9.88809 10.6765 9.36035 10.6765H8.29806V11.2342H10.4161ZM8.29806 12.1485H10.3423C10.1628 12.47 9.81884 12.7122 9.36035 12.7122H8.29806V12.1485Z" fill="#025AE9"/>
</svg>
