<svg width="32" height="32" viewBox="0 0 32 32" fill="none" xmlns="http://www.w3.org/2000/svg">
<path fill-rule="evenodd" clip-rule="evenodd" d="M20.1109 5.47698H24.6157C26.0092 5.47698 27.1388 6.60661 27.1388 8.00006V12.9231V13.6001H27.1358C27.1011 14.4227 26.759 15.2044 26.1745 15.789C26.0896 15.8738 26.0005 15.9536 25.9078 16.0281V18.2151V22.7075H27.077C27.4509 22.7075 27.754 23.0105 27.754 23.3844C27.754 23.7582 27.4509 24.0613 27.077 24.0613H25.9078V28.1837H28.8617C29.2355 28.1837 29.5386 28.4867 29.5386 28.8606C29.5386 29.2344 29.2355 29.5375 28.8617 29.5375H25.9078V29.5382H24.554V29.5375H7.44628V29.5382H6.09244V29.5375H3.13859C2.76474 29.5375 2.46167 29.2344 2.46167 28.8606C2.46167 28.4867 2.76474 28.1837 3.13859 28.1837H6.09244V24.0613H4.92319C4.54934 24.0613 4.24627 23.7582 4.24627 23.3844C4.24627 23.0105 4.54934 22.7075 4.92319 22.7075H6.09244V18.2151V16.0279C5.99977 15.9535 5.91078 15.8738 5.82595 15.789C5.24139 15.2044 4.89935 14.4227 4.86459 13.6001H4.86189V13.5006L4.86165 13.4609H4.86189V12.9231V8.00006C4.86189 6.60661 5.99151 5.47698 7.38496 5.47698H11.8895C12.4382 3.72897 14.0711 2.46094 16.0002 2.46094C17.9292 2.46094 19.5622 3.72897 20.1109 5.47698ZM7.44628 24.0613V28.1837H24.554V24.0613H7.44628ZM24.554 22.7075H7.44628V18.2151V16.6763C7.67693 16.7271 7.9141 16.7532 8.15396 16.7532C9.02713 16.7532 9.86454 16.4064 10.482 15.789C10.5855 15.6854 10.6815 15.5757 10.7694 15.4606C10.8574 15.5757 10.9534 15.6854 11.0569 15.789C11.6743 16.4064 12.5118 16.7532 13.3849 16.7532C14.2581 16.7532 15.0955 16.4064 15.7129 15.789C15.8165 15.6854 15.9124 15.5757 16.0003 15.4607C16.0883 15.5757 16.1842 15.6854 16.2877 15.789C16.9051 16.4064 17.7425 16.7532 18.6157 16.7532C19.4889 16.7532 20.3263 16.4064 20.9437 15.789C21.0472 15.6854 21.1431 15.5757 21.2311 15.4607C21.319 15.5757 21.4149 15.6854 21.5184 15.789C22.1359 16.4064 22.9733 16.7532 23.8465 16.7532C24.0863 16.7532 24.3234 16.7271 24.554 16.6763V18.2151V22.7075ZM14.3737 15.1283C14.5117 15.0464 14.6402 14.9471 14.7556 14.8316C15.0862 14.501 15.2851 14.0633 15.3184 13.6001H16.6743C16.6457 14.277 16.409 14.9263 16.0003 15.4607L14.3737 15.1283ZM11.8213 14.6066L14.3737 15.1283C14.0769 15.3043 13.7358 15.3994 13.3849 15.3994C12.8708 15.3994 12.3778 15.1952 12.0142 14.8316C11.9438 14.7612 11.8794 14.686 11.8213 14.6066ZM9.93697 14.2215C10.0207 14.0254 10.0719 13.8155 10.0874 13.6001H11.4515C11.4777 13.9647 11.6064 14.3134 11.8213 14.6066L9.93697 14.2215ZM9.93697 14.2215C9.8407 14.4472 9.70153 14.6548 9.52466 14.8316C9.16113 15.1952 8.66807 15.3994 8.15396 15.3994C7.63985 15.3994 7.14679 15.1952 6.78326 14.8316C6.45266 14.501 6.25381 14.0633 6.22049 13.6001H6.89622L9.93697 14.2215ZM21.913 13.6001H25.7799C25.7466 14.0633 25.5478 14.501 25.2172 14.8316C24.8536 15.1952 24.3606 15.3994 23.8465 15.3994C23.3323 15.3994 22.8393 15.1952 22.4758 14.8316C22.1452 14.501 21.9463 14.0633 21.913 13.6001ZM16.0002 11.0763C18.3585 11.0763 20.2742 9.18123 20.3074 6.83083H24.6157C25.2615 6.83083 25.785 7.35431 25.785 8.00006V12.2462H6.21574V8.00006C6.21574 7.35431 6.73922 6.83083 7.38496 6.83083H11.6929C11.7262 9.18123 13.6419 11.0763 16.0002 11.0763ZM17.6076 6.48992C17.5787 6.48021 17.5483 6.476 17.5188 6.47597L16.3477 6.44381C16.1618 6.4393 16.0066 6.58482 16.0021 6.77072C15.9976 6.95663 16.1431 7.11183 16.329 7.11634L16.3308 7.11683L17.1131 7.13737C16.9473 7.63853 16.4523 7.98647 15.893 7.93506C15.2931 7.88067 14.8265 7.36565 14.8283 6.76344C14.8302 6.10216 15.3766 5.57696 16.0334 5.59539C16.2562 5.6019 16.4664 5.67005 16.6471 5.78938C16.7808 5.87839 16.9555 5.8661 17.0718 5.75545C17.2269 5.60993 17.2105 5.35537 17.0334 5.23702C16.5717 4.92421 15.9803 4.83074 15.3925 5.0179C14.885 5.17734 14.4779 5.56461 14.2878 6.06119C13.7993 7.34052 14.7161 8.57888 15.9476 8.61344C16.966 8.64211 17.8175 7.83822 17.8462 6.81974C17.8509 6.67722 17.7618 6.53913 17.6076 6.48992Z" fill="#025AE9"/>
<path opacity="0.3" fill-rule="evenodd" clip-rule="evenodd" d="M11.6927 20.9247C12.7123 20.9247 13.5389 20.0982 13.5389 19.0786C13.5389 18.059 12.7123 17.2324 11.6927 17.2324C10.6731 17.2324 9.84658 18.059 9.84658 19.0786C9.84658 20.0982 10.6731 20.9247 11.6927 20.9247ZM16.0004 20.3087C16.0004 19.9689 16.276 19.6934 16.6158 19.6934H22.1543C22.4942 19.6934 22.7697 19.9689 22.7697 20.3087V22.7703H16.0004V20.3087ZM9.2312 22.771C9.2312 22.0913 9.78224 21.5402 10.462 21.5402H12.9235C13.6032 21.5402 14.1543 22.0913 14.1543 22.771V24.0018H9.2312V22.771Z" fill="#025AE9"/>
</svg>
