<svg width="23" height="29" viewBox="0 0 23 29" fill="none" xmlns="http://www.w3.org/2000/svg">
<path fill-rule="evenodd" clip-rule="evenodd" d="M5.74313 25.5939C4.6413 25.5939 3.79132 24.77 3.79132 23.7325V12.3228H1.89583C0.848794 12.3228 0 11.474 0 10.427C0 9.37993 0.848794 8.53113 1.89583 8.53113H3.79132V4.73562C3.79132 3.66763 4.6413 2.84375 5.74313 2.84375H10.5842C15.1407 2.84375 18.177 5.0542 18.8273 8.53113H20.8543C21.9013 8.53113 22.7501 9.37993 22.7501 10.427C22.7501 11.474 21.9013 12.3228 20.8543 12.3228H18.6346C17.5956 15.816 14.1741 18.0105 10.1434 18.0105H7.66346V23.7325C7.66346 24.77 6.81347 25.5939 5.74313 25.5939ZM14.7347 8.53113C14.1077 7.0364 12.4953 6.26132 10.2694 6.26132H7.66346V8.53113H14.7347ZM7.66346 12.3228H14.4222C13.6591 13.6358 12.205 14.6234 10.2694 14.6234H7.66346V12.3228Z" fill="#2044A5"/>
</svg>
