<svg width="62" height="62" viewBox="0 0 62 62" fill="none" xmlns="http://www.w3.org/2000/svg">
<path fill-rule="evenodd" clip-rule="evenodd" d="M25.6632 10.3305C27.3689 9.89131 29.1572 9.65774 31.0001 9.65774C32.8429 9.65774 34.6311 9.8912 36.3369 10.3303L36.0162 11.3172C35.7923 12.0061 36.1693 12.746 36.8582 12.9698C37.5471 13.1937 38.287 12.8167 38.5109 12.1278L38.8318 11.1402C42.2181 12.4766 45.1809 14.6544 47.4632 17.4174L46.6272 18.0248C46.0412 18.4505 45.9113 19.2707 46.3371 19.8567C46.7628 20.4427 47.583 20.5726 48.169 20.1469L50.0983 18.7452C50.6843 18.3194 50.8142 17.4992 50.3884 16.9132C50.3367 16.842 50.2791 16.7775 50.2168 16.72C50.179 16.6416 50.1328 16.5659 50.0781 16.494C45.7026 10.7477 38.7847 7.03467 31.0001 7.03467C17.7692 7.03467 7.04252 17.7565 7.03468 30.9856C7.03463 30.9903 7.03461 30.9951 7.03461 30.9999C7.03461 31.2107 7.08435 31.4099 7.17274 31.5864C7.38801 32.0164 7.83264 32.3116 8.34622 32.3116C8.3528 32.3116 8.35936 32.3115 8.36592 32.3114L13.1154 32.3115C13.8397 32.3115 14.4269 31.7243 14.4269 30.9999C14.4269 30.2756 13.8397 29.6884 13.1154 29.6884L9.6974 29.6884C9.92301 25.9674 11.102 22.5038 12.9933 19.5386L13.8309 20.1472C14.4169 20.573 15.2371 20.4431 15.6629 19.857C16.0886 19.271 15.9587 18.4508 15.3727 18.0251L14.5368 17.4177C16.8181 14.6556 19.7812 12.4773 23.1683 11.1405L23.4891 12.1278C23.7129 12.8167 24.4528 13.1937 25.1417 12.9698C25.8306 12.746 26.2076 12.0061 25.9838 11.3172L25.6632 10.3305ZM40.5384 31.0001C40.5384 36.268 36.2679 40.5385 31 40.5385C25.732 40.5385 21.4615 36.268 21.4615 31.0001C21.4615 25.7321 25.732 21.4616 31 21.4616C33.0089 21.4616 34.8728 22.0826 36.4101 23.1432L40.7156 22.4257C41.6569 22.2688 42.3919 23.2263 41.997 24.0951L40.125 28.2136C40.3938 29.0951 40.5384 30.0307 40.5384 31.0001ZM30.9999 26.1117C28.3001 26.1117 26.1115 28.3003 26.1115 31.0002C26.1115 33.7 28.3001 35.8886 30.9999 35.8886C33.3311 35.8886 35.2812 34.2569 35.7703 32.0732H31.8516C31.2589 32.0732 30.7785 31.5928 30.7785 31.0002C30.7785 30.4075 31.2589 29.9271 31.8516 29.9271H36.9615C37.5541 29.9271 38.0346 30.4075 38.0346 31.0002C38.0346 34.8853 34.8851 38.0348 30.9999 38.0348C27.1148 38.0348 23.9653 34.8853 23.9653 31.0002C23.9653 27.1151 27.1148 23.9656 30.9999 23.9656C32.9681 23.9656 34.7491 24.7752 36.0246 26.0769C36.4394 26.5002 36.4325 27.1796 36.0092 27.5944C35.5859 28.0092 34.9065 28.0023 34.4918 27.579C33.6032 26.6723 32.368 26.1117 30.9999 26.1117Z" fill="#2C3A91"/>
<path opacity="0.2" fill-rule="evenodd" clip-rule="evenodd" d="M32.5797 7.08715C32.6296 7.09045 32.6795 7.0939 32.7294 7.09751C32.7793 7.10112 32.8291 7.10488 32.8789 7.10879C33.601 7.1655 34.1405 7.79686 34.0837 8.51898C34.027 9.2411 33.3957 9.78053 32.6736 9.72382C32.6291 9.72033 32.5846 9.71697 32.5401 9.71375C32.4955 9.71053 32.451 9.70744 32.4065 9.7045C31.6837 9.65665 31.1366 9.03196 31.1844 8.3092C31.2323 7.58643 31.857 7.0393 32.5797 7.08715ZM28.1581 8.4826C28.2897 9.19489 27.8189 9.87898 27.1067 10.0106C27.0192 10.0267 26.932 10.0434 26.8449 10.0606C26.1343 10.2012 25.4444 9.73905 25.3038 9.02847C25.1633 8.31789 25.6254 7.62792 26.336 7.48739C26.4338 7.46803 26.5319 7.44928 26.6302 7.43113C27.3424 7.29955 28.0265 7.7703 28.1581 8.4826ZM37.0536 9.12625C37.2863 8.44032 38.0311 8.07295 38.717 8.30571C38.8116 8.33781 38.9059 8.37049 39 8.40373C39.6829 8.6451 40.0409 9.3944 39.7995 10.0773C39.5582 10.7603 38.8089 11.1183 38.1259 10.8769C38.0422 10.8473 37.9583 10.8182 37.8741 10.7897C37.1882 10.5569 36.8208 9.81218 37.0536 9.12625ZM42.5086 11.4378C42.9119 10.8361 43.7266 10.6753 44.3283 11.0786C44.411 11.1341 44.4934 11.19 44.5754 11.2465C45.172 11.6573 45.3227 12.4739 44.9119 13.0705C44.5011 13.6671 43.6844 13.8178 43.0878 13.407C43.0148 13.3567 42.9415 13.3069 42.8678 13.2575C42.2661 12.8542 42.1053 12.0395 42.5086 11.4378ZM22.4271 9.98473C22.7396 10.6382 22.4632 11.4213 21.8097 11.7338C21.7297 11.772 21.65 11.8108 21.5705 11.85C20.9209 12.1706 20.1345 11.904 19.8139 11.2545C19.4932 10.605 19.7599 9.81853 20.4094 9.49791C20.4987 9.45384 20.5882 9.41031 20.6781 9.36733C21.3316 9.05484 22.1147 9.33126 22.4271 9.98473ZM47.1759 15.0865C47.7207 14.6092 48.5494 14.664 49.0266 15.2088C49.0922 15.2837 49.1574 15.359 49.222 15.4347C49.6925 15.9855 49.6275 16.8133 49.0767 17.2838C48.526 17.7543 47.6981 17.6893 47.2276 17.1385C47.17 17.0711 47.1119 17.0039 47.0535 16.9372C46.5762 16.3923 46.631 15.5637 47.1759 15.0865ZM17.2832 12.9235C17.7537 13.4742 17.6887 14.3021 17.1379 14.7726C17.0704 14.8302 17.0033 14.8883 16.9366 14.9467C16.3917 15.424 15.5631 15.3692 15.0858 14.8243C14.6086 14.2795 14.6634 13.4509 15.2082 12.9736C15.2831 12.908 15.3584 12.8428 15.4341 12.7782C15.9849 12.3077 16.8127 12.3727 17.2832 12.9235ZM13.0699 17.0883C13.6665 17.4991 13.8172 18.3158 13.4064 18.9124C13.3561 18.9854 13.3063 19.0587 13.2569 19.1324C12.8535 19.7341 12.0388 19.8949 11.4372 19.4916C10.8355 19.0883 10.6747 18.2736 11.078 17.6719C11.1335 17.5892 11.1894 17.5068 11.2459 17.4248C11.6567 16.8282 12.4733 16.6776 13.0699 17.0883ZM50.7457 19.8145C51.3952 19.4939 52.1817 19.7605 52.5023 20.41C52.5464 20.4993 52.5899 20.5889 52.6329 20.6787C52.9454 21.3322 52.6689 22.1153 52.0155 22.4278C51.362 22.7402 50.5789 22.4638 50.2664 21.8104C50.2282 21.7303 50.1894 21.6506 50.1502 21.5711C49.8296 20.9215 50.0962 20.1351 50.7457 19.8145ZM10.0767 22.2007C10.7597 22.442 11.1176 23.1913 10.8763 23.8743C10.8467 23.958 10.8176 24.0419 10.7891 24.1261C10.5563 24.812 9.81157 25.1794 9.12564 24.9466C8.43971 24.7139 8.07234 23.9691 8.3051 23.2832C8.3372 23.1886 8.36988 23.0943 8.40312 23.0002C8.64449 22.3173 9.39379 21.9593 10.0767 22.2007ZM52.9717 25.3044C53.6823 25.1639 54.3723 25.626 54.5128 26.3366C54.5322 26.4345 54.5509 26.5325 54.5691 26.6308C54.7007 27.3431 54.2299 28.0272 53.5176 28.1587C52.8053 28.2903 52.1212 27.8196 51.9896 27.1073C51.9735 27.0198 51.9568 26.9326 51.9396 26.8455C51.799 26.1349 52.2612 25.445 52.9717 25.3044ZM53.691 31.185C54.4138 31.2329 54.9609 31.8576 54.9131 32.5803C54.9098 32.6302 54.9063 32.6801 54.9027 32.73C54.8991 32.7799 54.8953 32.8297 54.8914 32.8795C54.8347 33.6016 54.2033 34.1411 53.4812 34.0844C52.7591 34.0277 52.2197 33.3963 52.2764 32.6742C52.2799 32.6297 52.2832 32.5852 52.2865 32.5407C52.2897 32.4961 52.2928 32.4516 52.2957 32.4071C52.3435 31.6843 52.9682 31.1372 53.691 31.185ZM8.51837 27.9165C9.24049 27.9732 9.77992 28.6045 9.72321 29.3266C9.71972 29.3711 9.71636 29.4156 9.71314 29.4601C9.70992 29.5047 9.70683 29.5492 9.70389 29.5937C9.65604 30.3165 9.03135 30.8636 8.30859 30.8158C7.58583 30.7679 7.03869 30.1432 7.08654 29.4205C7.08984 29.3706 7.09329 29.3207 7.0969 29.2708C7.10051 29.2209 7.10427 29.1711 7.10818 29.1213C7.16489 28.3992 7.79625 27.8597 8.51837 27.9165ZM8.48199 33.8421C9.19428 33.7105 9.87837 34.1813 10.01 34.8935C10.0261 34.981 10.0428 35.0682 10.06 35.1553C10.2005 35.8659 9.73844 36.5558 9.02786 36.6964C8.31728 36.8369 7.62731 36.3748 7.48678 35.6642C7.46742 35.5664 7.44867 35.4683 7.43052 35.37C7.29894 34.6578 7.76969 33.9737 8.48199 33.8421ZM52.8739 37.0542C53.5599 37.2869 53.9272 38.0317 53.6945 38.7176C53.6624 38.8122 53.6297 38.9066 53.5965 39.0006C53.3551 39.6836 52.6058 40.0415 51.9229 39.8002C51.2399 39.5588 50.8819 38.8095 51.1233 38.1265C51.1529 38.0429 51.182 37.9589 51.2105 37.8747C51.4433 37.1888 52.188 36.8214 52.8739 37.0542ZM9.98412 39.5731C10.6376 39.2606 11.4207 39.537 11.7331 40.1905C11.7714 40.2705 11.8102 40.3502 11.8494 40.4297C12.17 41.0793 11.9034 41.8657 11.2539 42.1863C10.6044 42.507 9.81792 42.2403 9.4973 41.5908C9.45323 41.5015 9.4097 41.412 9.36672 41.3221C9.05423 40.6686 9.33065 39.8855 9.98412 39.5731ZM50.5624 42.5092C51.1641 42.9125 51.3249 43.7272 50.9216 44.3289C50.8661 44.4117 50.8102 44.494 50.7537 44.576C50.3429 45.1726 49.5263 45.3233 48.9297 44.9125C48.3331 44.5017 48.1824 43.685 48.5932 43.0884C48.6435 43.0154 48.6933 42.9421 48.7427 42.8684C49.146 42.2667 49.9607 42.1059 50.5624 42.5092ZM12.9229 44.717C13.4736 44.2465 14.3015 44.3116 14.772 44.8623C14.8296 44.9298 14.8877 44.9969 14.9461 45.0636C15.4234 45.6085 15.3686 46.4371 14.8237 46.9144C14.2789 47.3916 13.4502 47.3368 12.973 46.792C12.9074 46.7171 12.8422 46.6418 12.7776 46.5661C12.3071 46.0153 12.3721 45.1875 12.9229 44.717ZM46.9138 47.1765C47.391 47.7214 47.3362 48.55 46.7914 49.0272C46.7165 49.0928 46.6412 49.158 46.5655 49.2226C46.0147 49.6931 45.1869 49.6281 44.7164 49.0773C44.2459 48.5266 44.3109 47.6987 44.8617 47.2282C44.9291 47.1706 44.9963 47.1125 45.063 47.0541C45.6079 46.5768 46.4365 46.6316 46.9138 47.1765ZM17.0877 48.9303C17.4985 48.3337 18.3152 48.1831 18.9118 48.5938C18.9848 48.6441 19.0581 48.694 19.1318 48.7433C19.7335 49.1467 19.8943 49.9614 19.491 50.563C19.0877 51.1647 18.273 51.3255 17.6713 50.9222C17.5885 50.8667 17.5062 50.8108 17.4242 50.7543C16.8276 50.3435 16.6769 49.5269 17.0877 48.9303ZM42.1857 50.7463C42.5063 51.3958 42.2397 52.1823 41.5902 52.5029C41.5009 52.547 41.4114 52.5905 41.3215 52.6335C40.668 52.946 39.8849 52.6695 39.5724 52.0161C39.26 51.3626 39.5364 50.5795 40.1898 50.2671C40.2699 50.2288 40.3496 50.19 40.4291 50.1508C41.0787 49.8302 41.8651 50.0968 42.1857 50.7463ZM22.2 51.9235C22.4414 51.2405 23.1907 50.8826 23.8737 51.1239C23.9573 51.1535 24.0413 51.1826 24.1255 51.2111C24.8114 51.4439 25.1788 52.1886 24.946 52.8746C24.7133 53.5605 23.9685 53.9279 23.2826 53.6951C23.188 53.663 23.0936 53.6303 22.9996 53.5971C22.3166 53.3557 21.9587 52.6064 22.2 51.9235ZM36.6958 52.9723C36.8363 53.6829 36.3742 54.3729 35.6636 54.5134C35.5657 54.5328 35.4677 54.5515 35.3694 54.5697C34.6571 54.7013 33.973 54.2305 33.8415 53.5182C33.7099 52.8059 34.1806 52.1218 34.8929 51.9902C34.9804 51.9741 35.0676 51.9574 35.1547 51.9402C35.8653 51.7997 36.5552 52.2618 36.6958 52.9723ZM27.9158 53.4818C27.9725 52.7597 28.6039 52.2203 29.326 52.277C29.3705 52.2805 29.415 52.2838 29.4595 52.2871C29.5041 52.2903 29.5486 52.2934 29.5931 52.2963C30.3159 52.3442 30.863 52.9689 30.8152 53.6916C30.7673 54.4144 30.1426 54.9615 29.4199 54.9137C29.3906 54.9117 29.3613 54.9097 29.332 54.9077C29.3114 54.9063 29.2908 54.9048 29.2702 54.9033C29.2203 54.8997 29.1705 54.8959 29.1207 54.892C28.3986 54.8353 27.8591 54.2039 27.9158 53.4818Z" fill="#2C3A91"/>
</svg>
