<svg width="62" height="62" viewBox="0 0 62 62" fill="none" xmlns="http://www.w3.org/2000/svg">
<path fill-rule="evenodd" clip-rule="evenodd" d="M51.3883 15.6189C51.3883 12.9191 49.1997 10.7305 46.4999 10.7305L8.34602 10.7305C7.62168 10.7305 7.03448 11.3177 7.03448 12.042C7.03448 12.7664 7.62168 13.3535 8.34602 13.3535L46.4999 13.3535C47.751 13.3535 48.7653 14.3678 48.7653 15.6189L48.7653 32.3112C48.7653 33.5624 47.751 34.5766 46.4999 34.5766H20.2691C19.5448 34.5766 18.9576 35.1638 18.9576 35.8882C18.9576 36.6125 19.5448 37.1997 20.2691 37.1997H46.4999C49.1997 37.1997 51.3883 35.0111 51.3883 32.3112V15.6189ZM33.4752 31.1189C32.7664 31.1189 32.2195 30.6008 32.2195 29.9483V22.7728H30.9999C30.3414 22.7728 29.8076 22.239 29.8076 21.5805C29.8076 20.922 30.3414 20.3882 30.9999 20.3882H32.2195V18.001C32.2195 17.3294 32.7664 16.8112 33.4752 16.8112H36.5897C39.5212 16.8112 41.4745 18.2014 41.8928 20.3882H42.9229C43.5814 20.3882 44.1153 20.922 44.1153 21.5805C44.1153 22.239 43.5814 22.7728 42.9229 22.7728H41.7689C41.1003 24.9696 38.8992 26.3497 36.3061 26.3497H34.7107V29.9483C34.7107 30.6008 34.1638 31.1189 33.4752 31.1189ZM39.2599 20.3882C38.8566 19.4481 37.8193 18.9606 36.3872 18.9606H34.7107V20.3882H39.2599ZM34.7107 22.7728H39.0588C38.5678 23.5985 37.6324 24.2196 36.3872 24.2196H34.7107V22.7728ZM20.2691 31.1188C20.9934 31.1188 21.5806 30.5316 21.5806 29.8073C21.5806 29.0829 20.9934 28.4957 20.2691 28.4957H17.8845C17.1601 28.4957 16.5729 29.0829 16.5729 29.8073C16.5729 30.5316 17.1601 31.1188 17.8845 31.1188H20.2691ZM21.5806 23.8457C21.5806 24.5701 20.9934 25.1573 20.2691 25.1573H14.3076C13.5832 25.1573 12.996 24.5701 12.996 23.8457C12.996 23.1214 13.5832 22.5342 14.3076 22.5342H20.2691C20.9934 22.5342 21.5806 23.1214 21.5806 23.8457ZM20.2691 19.1957C20.9934 19.1957 21.5806 18.6085 21.5806 17.8842C21.5806 17.1599 20.9934 16.5727 20.2691 16.5727L10.7306 16.5727C10.0063 16.5727 9.4191 17.1599 9.4191 17.8842C9.4191 18.6085 10.0063 19.1957 10.7306 19.1957L20.2691 19.1957Z" fill="#0B357B"/>
<path opacity="0.4" fill-rule="evenodd" clip-rule="evenodd" d="M49.4808 17.8851C52.444 17.8851 54.8461 15.4829 54.8461 12.5197C54.8461 9.55646 52.444 7.1543 49.4808 7.1543C46.5175 7.1543 44.1154 9.55646 44.1154 12.5197C44.1154 15.4829 46.5175 17.8851 49.4808 17.8851ZM20.9233 43.6131C18.9655 42.8975 16.7486 42.8531 14.7501 43.4923L14.7501 43.4923L14.7411 43.4951L9.65768 45.0806V53.5351H16.9179C16.9678 53.5351 17.0176 53.5379 17.0672 53.5436L27.1772 54.7023L51.7013 46.3366C52.0139 46.23 52.193 46.05 52.2754 45.8984C52.3533 45.7553 52.3621 45.6153 52.307 45.4742C52.1979 45.195 51.7515 44.8332 51.0769 44.8971L51.0703 44.8977L41.3766 45.7668C41.3427 45.8553 41.3045 45.9415 41.2623 46.0248C40.9118 46.7174 40.2773 47.2631 39.5074 47.5257L27.744 51.5384C27.0585 51.7723 26.3131 51.4061 26.0793 50.7205C25.8454 50.035 26.2116 49.2897 26.8972 49.0558L38.6605 45.0431C38.7671 45.0068 38.8411 44.947 38.8849 44.8948C38.8753 44.8906 38.8647 44.8863 38.8532 44.8819C38.7229 44.8322 38.5523 44.808 38.3945 44.823L27.4444 45.8606C27.25 45.879 27.0539 45.8538 26.8705 45.7867L20.9233 43.6131ZM50.8331 42.2854L40.9087 43.1751C40.5796 42.8145 40.171 42.5772 39.7887 42.4313C39.2684 42.2327 38.6919 42.16 38.147 42.2116L27.4923 43.2212L21.8238 41.1494C19.3178 40.2335 16.5048 40.1783 13.9557 40.9924L13.9511 40.9938L7.95563 42.8638C7.40775 43.0347 7.03461 43.5419 7.03461 44.1158L7.03461 54.8466C7.03461 55.5709 7.6218 56.1581 8.34615 56.1581H16.843L27.1718 57.3419C27.365 57.3641 27.5606 57.343 27.7446 57.2802L52.5482 48.8192C54.2943 48.2236 55.4857 46.4012 54.7501 44.5192C54.1345 42.9442 52.4366 42.1349 50.8331 42.2854Z" fill="#0B357B"/>
</svg>
