<svg width="62" height="62" viewBox="0 0 62 62" fill="none" xmlns="http://www.w3.org/2000/svg">
<path opacity="0.4" fill-rule="evenodd" clip-rule="evenodd" d="M25.0385 50.0771C25.0385 49.4186 25.6739 48.8848 26.4579 48.8848H35.5421C36.326 48.8848 36.9615 49.4186 36.9615 50.0771C36.9615 50.7356 36.326 51.2694 35.5421 51.2694H26.4579C25.6739 51.2694 25.0385 50.7356 25.0385 50.0771Z" fill="#2B3990"/>
<path fill-rule="evenodd" clip-rule="evenodd" d="M19.9286 4.64941C16.7584 4.64941 14.1885 7.21935 14.1885 10.3895V15.4991H7.15384C5.83685 15.4991 4.76923 16.5667 4.76923 17.8837V30.9991C4.76923 32.3161 5.83685 33.3837 7.15384 33.3837H14.1885V33.4002V33.4396V33.4791V33.5186V33.5581V33.5976V33.6372V33.6768V33.7164V33.756V33.7957V33.8354V33.8751V33.9148V33.9545V33.9943V34.0341V34.074V34.1138V34.1537V34.1936V34.2335V34.2734V34.3134V34.3533V34.3933V34.4334V34.4734V34.5135V34.5535V34.5937V34.6338V34.6739V34.7141V34.7543V34.7945V34.8347V34.8749V34.9152V34.9555V34.9957V35.0361V35.0764V35.1167V35.1571V35.1975V35.2379V35.2783V35.3187V35.3592V35.3996V35.4401V35.4806V35.5211V35.5617V35.6022V35.6428V35.6833V35.7239V35.7645V35.8051V35.8458V35.8864V35.9271V35.9677V36.0084V36.0491V36.0898V36.1305V36.1713V36.212V36.2528V36.2936V36.3343V36.3751V36.4159V36.4567V36.4976V36.5384V36.5793V36.6201V36.661V36.7018V36.7427V36.7836V36.8245V36.8654V36.9064V36.9473V36.9882V37.0292V37.0701V37.1111V37.1521V37.193V37.234V37.275V37.316V37.357V37.398V37.439V37.48V37.5211V37.5621V37.6031V37.6442V37.6852V37.7263V37.7673V37.8084V37.8494V37.8905V37.9316V37.9727V38.0137V38.0548V38.0959V38.137V38.1781V38.2192V38.2603V38.3013V38.3424V38.3835V38.4246V38.4657V38.5068V38.5479V38.589V38.6301V38.6712V38.7123V38.7534V38.7945V38.8356V38.8767V38.9178V38.9589V39V39.0411V39.0822V39.1233V39.1644V39.2054V39.2465V39.2876V39.3287V39.3697V39.4108V39.4519V39.4929V39.534V39.575V39.6161V39.6571V39.6981V39.7391V39.7802V39.8212V39.8622V39.9032V39.9442V39.9852V40.0262V40.0671V40.1081V40.1491V40.19V40.231V40.2719V40.3128V40.3538V40.3947V40.4356V40.4765V40.5174V40.5582V40.5991V40.64V40.6808V40.7216V40.7625V40.8033V40.8441V40.8849V40.9257V40.9664V41.0072V41.0479V41.0887V41.1294V41.1701V41.2108V41.2515V41.2922V41.3328V41.3735V41.4141V41.4547V41.4953V41.5359V41.5765V41.617V41.6576V41.6981V41.7386V41.7791V41.8196V41.8601V41.9005V41.941V41.9814V42.0218V42.0622V42.1025V42.1429V42.1832V42.2235V42.2638V42.3041V42.3444V42.3846V42.4248V42.465V42.5052V42.5454V42.5855V42.6257V42.6658V42.7058V42.7459V42.786V42.826V42.866V42.906V42.9459V42.9859V43.0258V43.0657V43.1055V43.1454V43.1852V43.225V43.2648V43.3046V43.3443V43.384V43.4237V43.4634V43.503V43.5426V43.5822V43.6218V43.6613V43.7008V43.7403V43.7798V43.8192V43.8586V43.898V43.9374V43.9767V44.016V44.0553V44.0945V44.1338V44.1729V44.2121V44.2513V44.2904V44.3294V44.3685V44.4075V44.4465V44.4855V44.5244V44.5633V44.6022V44.641V44.6799V44.7186V44.7574V44.7961V44.8348V44.8735V44.9121V44.9507V44.9893V45.0278V45.0663V45.1048V45.1432V45.1816V45.22V45.2583V45.2966V45.3349V45.3731V45.4113V45.4495V45.4876V45.5257V45.5638V45.6018V45.6398V45.6777V45.7157V45.7536V45.7914V45.8292V45.867V45.9047V45.9424V45.9801V46.0177V46.0553V46.0928V46.1304V46.1678V46.2053V46.2427V46.28V46.3173V46.3546V46.3918V46.429V46.4662V46.5033V46.5404V46.5774V46.6144V46.6514V46.6883V46.7252V46.762V46.7988V46.8356V46.8723V46.9089V46.9455V46.9821V47.0187V47.0552V47.0916V47.128V47.1644V47.2007V47.237V47.2732V47.3094V47.3455V47.3816V47.4177V47.4537V47.4896V47.5255V47.5614V47.5972V47.633V47.6687V47.7044V47.74V47.7756V47.8112V47.8467V47.8821V47.9175V47.9529V47.9881V48.0234V48.0586V48.0938V48.1289V48.1639V48.1989V48.2339V48.2688V48.3036V48.3384V48.3732V48.4079V48.4425V48.4771V48.5117V48.5462V48.5806V48.615V48.6493V48.6836V48.7179V48.7521V48.7862V48.8203V48.8543V48.8882V48.9222V48.956V48.9898V49.0236V49.0573V49.0909V49.1245V49.158V49.1915V49.2249V49.2583V49.2916V49.3248V49.358V49.3912V49.4243V49.4573V49.4902V49.5231V49.556V49.5888V49.6215V49.6542V49.6868V49.7194V49.7519V49.7843V49.8167V49.849V49.8813V49.9135V49.9456V49.9777V50.0097V50.0417V50.0736V50.1054V50.1372V50.1689V50.2005V50.2321V50.2637V50.2951V50.3265V50.3579V50.3891V50.4204V50.4515V50.4826V50.5136V50.5446V50.5755V50.6063V50.6371V50.6678V50.6984V50.729V50.7595V50.7899V50.8203V50.8506V50.8808V50.911V50.9411V50.9711V51.0011V51.031V51.0608V51.0906V51.1203V51.1499V51.1795V51.209V51.2384V51.2678V51.2971V51.3263V51.3554V51.3845V51.4135V51.4425V51.4713V51.5001V51.5289V51.5575V51.5861V51.6146C14.1885 54.7868 16.7604 57.3494 19.9286 57.3494H42.0714C45.2416 57.3494 47.8115 54.7795 47.8115 51.6093V13.1943V10.3895C47.8115 7.21935 45.2416 4.64941 42.0714 4.64941H19.9286ZM16.8115 33.3837V33.4002V33.4396V33.4791V33.5186V33.5581V33.5976V33.6372V33.6768V33.7164V33.756V33.7957V33.8354V33.8751V33.9148V33.9545V33.9943V34.0341V34.074V34.1138V34.1537V34.1936V34.2335V34.2734V34.3134V34.3533V34.3933V34.4334V34.4734V34.5135V34.5535V34.5937V34.6338V34.6739V34.7141V34.7543V34.7945V34.8347V34.8749V34.9152V34.9555V34.9957V35.0361V35.0764V35.1167V35.1571V35.1975V35.2379V35.2783V35.3187V35.3592V35.3996V35.4401V35.4806V35.5211V35.5617V35.6022V35.6428V35.6833V35.7239V35.7645V35.8051V35.8458V35.8864V35.9271V35.9677V36.0084V36.0491V36.0898V36.1305V36.1713V36.212V36.2528V36.2936V36.3343V36.3751V36.4159V36.4567V36.4976V36.5384V36.5793V36.6201V36.661V36.7018V36.7427V36.7836V36.8245V36.8654V36.9064V36.9473V36.9882V37.0292V37.0701V37.1111V37.1521V37.193V37.234V37.275V37.316V37.357V37.398V37.439V37.48V37.5211V37.5621V37.6031V37.6442V37.6852V37.7263V37.7673V37.8084V37.8494V37.8905V37.9316V37.9727V38.0137V38.0548V38.0959V38.137V38.1781V38.2192V38.2603V38.3013V38.3424V38.3835V38.4246V38.4657V38.5068V38.5479V38.589V38.6301V38.6712V38.7123V38.7534V38.7945V38.8356V38.8767V38.9178V38.9589V39V39.0411V39.0822V39.1233V39.1644V39.2054V39.2465V39.2876V39.3287V39.3697V39.4108V39.4519V39.4929V39.534V39.575V39.6161V39.6571V39.6981V39.7391V39.7802V39.8212V39.8622V39.9032V39.9442V39.9852V40.0262V40.0671V40.1081V40.1491V40.19V40.231V40.2719V40.3128V40.3538V40.3947V40.4356V40.4765V40.5174V40.5582V40.5991V40.64V40.6808V40.7216V40.7625V40.8033V40.8441V40.8849V40.9257V40.9664V41.0072V41.0479V41.0887V41.1294V41.1701V41.2108V41.2515V41.2922V41.3328V41.3735V41.4141V41.4547V41.4953V41.5359V41.5765V41.617V41.6576V41.6981V41.7386V41.7791V41.8196V41.8601V41.9005V41.941V41.9814V42.0218V42.0622V42.1025V42.1429V42.1832V42.2235V42.2638V42.3041V42.3444V42.3846V42.4248V42.465V42.5052V42.5454V42.5855V42.6257V42.6658V42.7058V42.7459V42.786V42.826V42.866V42.906V42.9459V42.9859V43.0258V43.0657V43.1055V43.1454V43.1852V43.225V43.2648V43.3046V43.3443V43.384V43.4237V43.4634V43.503V43.5426V43.5822V43.6218V43.6613V43.7008V43.7403V43.7798V43.8192V43.8586V43.898V43.9374V43.9767V44.016V44.0553V44.0945V44.1338V44.1729V44.2121V44.2513V44.2904V44.3294V44.3685V44.4075V44.4465V44.4855V44.5244V44.5633V44.6022V44.641V44.6799V44.7186V44.7574V44.7961V44.8348V44.8735V44.9121V44.9507V44.9893V45.0278V45.0663V45.1048V45.1432V45.1816V45.22V45.2583V45.2966V45.3349V45.3731V45.4113V45.4495V45.4876V45.5257V45.5638V45.6018V45.6398V45.6777V45.7157V45.7536V45.7914V45.8292V45.867V45.9047V45.9424V45.9801V46.0177V46.0553V46.0928V46.1304V46.1678V46.2053V46.2427V46.28V46.3173V46.3546V46.3918V46.429V46.4662V46.5033V46.5404V46.5774V46.6144V46.6514V46.6883V46.7252V46.762V46.7988V46.8356V46.8723V46.9089V46.9455V46.9821V47.0187V47.0552V47.0916V47.128V47.1644V47.2007V47.237V47.2732V47.3094V47.3455V47.3816V47.4177V47.4537V47.4896V47.5255V47.5614V47.5972V47.633V47.6687V47.7044V47.74V47.7756V47.8112V47.8467V47.8821V47.9175V47.9529V47.9881V48.0234V48.0586V48.0938V48.1289V48.1639V48.1989V48.2339V48.2688V48.3036V48.3384V48.3732V48.4079V48.4425V48.4771V48.5117V48.5462V48.5806V48.615V48.6493V48.6836V48.7179V48.7521V48.7862V48.8203V48.8543V48.8882V48.9222V48.956V48.9898V49.0236V49.0573V49.0909V49.1245V49.158V49.1915V49.2249V49.2583V49.2916V49.3248V49.358V49.3912V49.4243V49.4573V49.4902V49.5231V49.556V49.5888V49.6215V49.6542V49.6868V49.7194V49.7519V49.7843V49.8167V49.849V49.8813V49.9135V49.9456V49.9777V50.0097V50.0417V50.0736V50.1054V50.1372V50.1689V50.2005V50.2321V50.2637V50.2951V50.3265V50.3579V50.3891V50.4204V50.4515V50.4826V50.5136V50.5446V50.5755V50.6063V50.6371V50.6678V50.6984V50.729V50.7595V50.7899V50.8203V50.8506V50.8808V50.911V50.9411V50.9711V51.0011V51.031V51.0608V51.0906V51.1203V51.1499V51.1795V51.209V51.2384V51.2678V51.2971V51.3263V51.3554V51.3845V51.4135V51.4425V51.4713V51.5001V51.5289V51.5575V51.5861V51.6146C16.8115 53.3341 18.205 54.7263 19.9286 54.7263H42.0714C43.7929 54.7263 45.1885 53.3308 45.1885 51.6093V13.1943V10.3895C45.1885 8.66803 43.7929 7.27249 42.0714 7.27249H19.9286C18.2071 7.27249 16.8115 8.66803 16.8115 10.3895V15.4991H25.0385V11.9222L36.9615 24.4414L25.0385 36.9607V33.3837H16.8115ZM15.2001 29.8068C14.6964 29.8068 14.3078 29.4181 14.3078 28.9288V23.5386H13.1155C12.6263 23.5386 12.2297 23.1421 12.2297 22.6529C12.2297 22.1637 12.6263 21.7672 13.1155 21.7672H14.3078V19.9683C14.3078 19.4646 14.6964 19.076 15.2001 19.076H18.2802C20.3671 19.076 21.7564 20.1222 22.0504 21.7672H22.6539C23.1431 21.7672 23.5396 22.1637 23.5396 22.6529C23.5396 23.1421 23.1431 23.5386 22.6539 23.5386H21.9632C21.4911 25.1912 19.9247 26.2298 18.0787 26.2298H16.0781V28.9288C16.0781 29.4181 15.6895 29.8068 15.2001 29.8068ZM20.1812 21.7672C19.8971 21.0565 19.1581 20.688 18.1363 20.688H16.0781V21.7672L20.1812 21.7672ZM16.0781 23.5386H20.0396C19.692 24.1622 19.0253 24.6322 18.1363 24.6322H16.0781V23.5386Z" fill="#2B3990"/>
</svg>
