<svg width="62" height="62" viewBox="0 0 62 62" fill="none" xmlns="http://www.w3.org/2000/svg">
<path opacity="0.4" fill-rule="evenodd" clip-rule="evenodd" d="M16.5731 20.2692C16.5731 18.2278 18.2279 16.573 20.2692 16.573H26.2308C28.2721 16.573 29.9269 18.2278 29.9269 20.2692V25.0384C29.9269 27.0797 28.2721 28.7345 26.2308 28.7345H20.2692C18.2279 28.7345 16.5731 27.0797 16.5731 25.0384V20.2692ZM20.2692 19.1961C19.6766 19.1961 19.1961 19.6765 19.1961 20.2692V25.0384C19.1961 25.631 19.6766 26.1115 20.2692 26.1115H26.2308C26.8234 26.1115 27.3038 25.631 27.3038 25.0384V20.2692C27.3038 19.6765 26.8234 19.1961 26.2308 19.1961H20.2692ZM33.2654 20.2692C33.2654 18.2278 34.9202 16.573 36.9615 16.573H42.9231C44.9644 16.573 46.6192 18.2278 46.6192 20.2692V25.0384C46.6192 27.0797 44.9644 28.7345 42.9231 28.7345H36.9615C34.9202 28.7345 33.2654 27.0797 33.2654 25.0384V20.2692ZM36.9615 19.1961C36.3689 19.1961 35.8884 19.6765 35.8884 20.2692V25.0384C35.8884 25.631 36.3689 26.1115 36.9615 26.1115H42.9231C43.5157 26.1115 43.9961 25.631 43.9961 25.0384V20.2692C43.9961 19.6765 43.5157 19.1961 42.9231 19.1961H36.9615ZM20.2692 33.2653C18.2279 33.2653 16.5731 34.9201 16.5731 36.9615V41.7307C16.5731 43.772 18.2279 45.4268 20.2692 45.4268H26.2308C28.2721 45.4268 29.9269 43.772 29.9269 41.7307V36.9615C29.9269 34.9201 28.2721 33.2653 26.2308 33.2653H20.2692ZM19.1961 36.9615C19.1961 36.3688 19.6766 35.8884 20.2692 35.8884H26.2308C26.8234 35.8884 27.3038 36.3688 27.3038 36.9615V41.7307C27.3038 42.3233 26.8234 42.8038 26.2308 42.8038H20.2692C19.6766 42.8038 19.1961 42.3233 19.1961 41.7307V36.9615ZM38.1538 42.923C38.1538 44.24 37.0862 45.3076 35.7692 45.3076C34.4522 45.3076 33.3846 44.24 33.3846 42.923C33.3846 41.606 34.4522 40.5384 35.7692 40.5384C37.0862 40.5384 38.1538 41.606 38.1538 42.923ZM42.9231 38.1538C44.24 38.1538 45.3077 37.0861 45.3077 35.7692C45.3077 34.4522 44.24 33.3845 42.9231 33.3845C41.6061 33.3845 40.5384 34.4522 40.5384 35.7692C40.5384 37.0861 41.6061 38.1538 42.9231 38.1538Z" fill="white"/>
<path fill-rule="evenodd" clip-rule="evenodd" d="M54.9653 14.3075C54.9653 10.2907 51.709 7.03442 47.6922 7.03442L40.5383 7.03442C39.814 7.03442 39.2268 7.62162 39.2268 8.34596C39.2268 9.0703 39.814 9.6575 40.5383 9.6575L47.6922 9.6575C50.2603 9.6575 52.3422 11.7394 52.3422 14.3075V21.4613C52.3422 22.1857 52.9294 22.7729 53.6537 22.7729C54.3781 22.7729 54.9653 22.1857 54.9653 21.4613V14.3075ZM14.3076 7.03442C10.2908 7.03442 7.03448 10.2907 7.03448 14.3075V21.4613C7.03448 22.1857 7.62168 22.7729 8.34602 22.7729C9.07037 22.7729 9.65756 22.1857 9.65756 21.4613V14.3075C9.65756 11.7394 11.7394 9.6575 14.3076 9.6575H21.4614C22.1858 9.6575 22.7729 9.07031 22.7729 8.34596C22.7729 7.62162 22.1858 7.03442 21.4614 7.03442H14.3076ZM54.9653 47.6921C54.9653 51.7089 51.709 54.9652 47.6922 54.9652H40.5383C39.814 54.9652 39.2268 54.378 39.2268 53.6537C39.2268 52.9293 39.814 52.3421 40.5383 52.3421H47.6922C50.2603 52.3421 52.3422 50.2602 52.3422 47.6921V40.5383C52.3422 39.8139 52.9294 39.2267 53.6537 39.2267C54.3781 39.2267 54.9653 39.8139 54.9653 40.5383V47.6921ZM7.03449 47.6921C7.03449 51.7089 10.2908 54.9652 14.3076 54.9652H21.4614C22.1857 54.9652 22.7729 54.378 22.7729 53.6537C22.7729 52.9293 22.1857 52.3421 21.4614 52.3421L14.3076 52.3421C11.7394 52.3421 9.65756 50.2602 9.65756 47.6921L9.65756 40.5383C9.65756 39.8139 9.07037 39.2267 8.34603 39.2267C7.62168 39.2267 7.03449 39.8139 7.03449 40.5383L7.03449 47.6921Z" fill="white"/>
</svg>
