<svg width="62" height="62" viewBox="0 0 62 62" fill="none" xmlns="http://www.w3.org/2000/svg">
<path opacity="0.4" fill-rule="evenodd" clip-rule="evenodd" d="M31.0003 35.7695C35.6097 35.7695 39.3464 32.0328 39.3464 27.4233C39.3464 22.8138 35.6097 19.0771 31.0003 19.0771C26.3908 19.0771 22.6541 22.8138 22.6541 27.4233C22.6541 32.0328 26.3908 35.7695 31.0003 35.7695ZM31.2835 56.0387C36.9618 56.0387 42.9234 50.0771 45.308 46.5051C44.4842 45.0322 43.7937 44.3808 42.7582 43.4038C42.5706 43.2269 42.3717 43.0392 42.1586 42.8341C39.0151 39.8074 35.08 38.1541 31.0201 38.1541C26.9602 38.1541 23.0251 39.8074 19.8816 42.8341C19.6786 43.0295 19.4861 43.2114 19.3022 43.3851C18.2669 44.3631 17.5042 45.0837 16.6926 46.5051C18.4811 49.481 25.0387 56.0387 31.2835 56.0387Z" fill="#0D2165"/>
<path fill-rule="evenodd" clip-rule="evenodd" d="M50.0772 5.84229C50.8016 5.84229 51.3888 6.42948 51.3888 7.15382V10.6117H54.8465C55.5708 10.6117 56.158 11.1989 56.158 11.9232C56.158 12.6475 55.5708 13.2347 54.8465 13.2347H51.3888V16.6923C51.3888 17.4166 50.8016 18.0038 50.0772 18.0038C49.3529 18.0038 48.7657 17.4166 48.7657 16.6923V13.2347H45.308C44.5837 13.2347 43.9965 12.6475 43.9965 11.9232C43.9965 11.1989 44.5837 10.6117 45.308 10.6117H48.7657V7.15382C48.7657 6.42948 49.3529 5.84229 50.0772 5.84229ZM14.3077 13.324C13.7583 13.324 13.324 13.7626 13.324 14.2997L13.324 36.9615C13.324 38.6959 13.9586 40.6763 15.1173 42.7254C16.2692 44.7624 17.8935 46.7851 19.7518 48.5788C21.6097 50.3722 23.6689 51.9051 25.6662 52.9822C27.6843 54.0705 29.5345 54.6375 30.9999 54.6375C32.4818 54.6375 34.3408 54.0965 36.3548 53.0541C38.3504 52.0212 40.4057 50.5434 42.2582 48.7906C46.0232 45.2283 48.6759 40.8039 48.6759 36.9615V21.4615C48.6759 20.6878 49.3031 20.0606 50.0769 20.0606C50.8506 20.0606 51.4778 20.6878 51.4778 21.4615L51.4778 36.9615C51.4778 41.9412 48.169 47.0553 44.184 50.8259C42.1615 52.7395 39.8947 54.3769 37.6427 55.5424C35.4091 56.6986 33.095 57.4394 30.9999 57.4394C28.8884 57.4394 26.5656 56.6507 24.3361 55.4483C22.0858 54.2347 19.8229 52.5418 17.8059 50.5948C15.7891 48.6482 13.9855 46.4161 12.6783 44.1046C11.3779 41.805 10.5221 39.3429 10.5221 36.9615L10.5221 14.2997C10.5221 12.2029 12.2231 10.5221 14.3077 10.5221H40.7369C41.5107 10.5221 42.1379 11.1493 42.1379 11.9231C42.1379 12.6968 41.5107 13.324 40.7369 13.324H14.3077Z" fill="#0D2165"/>
</svg>
