<svg width="62" height="62" viewBox="0 0 62 62" fill="none" xmlns="http://www.w3.org/2000/svg">
<circle opacity="0.4" cx="41.7308" cy="33.3846" r="2.38462" fill="#41509E"/>
<path fill-rule="evenodd" clip-rule="evenodd" d="M34.9318 24.125C32.6972 27.5466 28.8338 29.8078 24.4423 29.8078C22.4308 29.8078 20.53 29.3333 18.8459 28.4903C16.2873 31.0923 14.427 35.1074 14.427 38.4566C14.427 40.8357 14.9849 42.7168 15.9238 44.268C16.8691 45.8299 18.2423 47.1257 19.9686 48.2623C20.4486 48.5784 20.6669 49.1701 20.5072 49.7222L19.7844 52.2207C19.665 52.6335 19.8532 53.0733 20.2342 53.272L23.0893 54.7608C23.4235 54.9351 23.8308 54.8834 24.1109 54.6312L26.341 52.6225C26.6272 52.3648 27.0121 52.2459 27.3938 52.2973C32.0593 52.9256 35.7356 52.8792 38.6151 52.3104C39.0579 52.2229 39.5145 52.3693 39.8239 52.6977L41.4944 54.471C41.7795 54.7736 42.2344 54.8424 42.5963 54.6376L44.9078 53.3289C45.2753 53.1208 45.4495 52.6857 45.327 52.2814L44.7396 50.3438C44.5763 49.805 44.7751 49.2221 45.2335 48.8953C47.6695 47.1591 49.3156 44.9998 50.1964 42.8118C50.3311 42.4771 50.5977 42.2127 50.9335 42.0808L54.1543 40.8158C54.4998 40.6801 54.727 40.3467 54.727 39.9755V36.5321C54.727 36.1216 54.45 35.7627 54.0529 35.6588L51.0808 34.8805C50.6793 34.7754 50.3513 34.4865 50.1964 34.1015C49.2735 31.809 47.6292 29.7346 45.434 28.0663C45.1076 27.8183 44.916 27.432 44.916 27.0221V20.9389C43.1896 21.7354 40.9939 23.1251 39.8336 24.3837C39.5043 24.7409 39.0045 24.8868 38.5348 24.7629C37.3816 24.4587 36.1764 24.2426 34.9318 24.125ZM36.1885 21.6293C36.6885 20.2769 36.9615 18.8146 36.9615 17.2885C36.9615 10.3743 31.3565 4.76929 24.4423 4.76929C17.5281 4.76929 11.9231 10.3743 11.9231 17.2885C11.9231 21.2337 13.7479 24.7526 16.5996 27.0473C14.387 29.4549 12.6597 32.749 12.0459 35.9871C11.4831 35.8014 10.9626 35.4754 10.5022 35.0497C10.8976 34.4618 11.2071 33.8433 11.4284 33.2404C11.8699 32.038 12.041 30.7042 11.7337 29.575C11.5761 28.9961 11.2755 28.4157 10.7607 27.9764C10.2311 27.5244 9.56987 27.3038 8.85572 27.3038C8.1203 27.3038 7.44479 27.5468 6.91959 28.0391C6.41581 28.5114 6.14457 29.1236 6.01361 29.7164C5.75703 30.8778 5.96791 32.2549 6.43661 33.5045C6.60741 33.9599 6.82533 34.4282 7.08921 34.889C6.43054 35.3612 5.64735 35.65 4.76918 35.65C4.04484 35.65 3.45764 36.2372 3.45764 36.9615C3.45764 37.6859 4.04484 38.2731 4.76918 38.2731C6.33168 38.2731 7.64815 37.7506 8.7056 36.9597C9.55223 37.7561 10.5887 38.3786 11.8049 38.6442C11.834 41.3781 12.4992 43.6758 13.6797 45.6262C14.7132 47.3338 16.1109 48.725 17.7253 49.8993L17.2647 51.4918C16.7982 53.1042 17.5331 54.8218 19.0214 55.5979L21.8765 57.0867C23.1818 57.7673 24.7726 57.5654 25.8664 56.5802L27.6482 54.9753C31.8726 55.5028 35.4279 55.5028 38.4023 55.014L39.5851 56.2696C40.6986 57.4516 42.4754 57.7202 43.8886 56.9202L46.2001 55.6115C47.6357 54.7988 48.3158 53.0993 47.8372 51.5205L47.516 50.4607C49.7554 48.6896 51.3959 46.5616 52.4038 44.3215L55.1133 43.2572C56.4627 42.7272 57.3501 41.4252 57.3501 39.9755V36.5321C57.3501 34.9288 56.2684 33.5274 54.7174 33.1212L52.3652 32.5053C51.2988 30.1648 49.6305 28.0877 47.5391 26.3853V20.4224C47.5391 18.9585 46.1086 17.5984 44.4522 18.2795C42.6681 19.0132 40.1446 20.4799 38.4658 22.0442C37.7224 21.8726 36.9625 21.7337 36.1885 21.6293ZM22.0473 22.6538C21.5435 22.6538 21.1549 22.2652 21.1549 21.7759V16.3857H19.9626C19.4734 16.3857 19.0769 15.9892 19.0769 15.5C19.0769 15.0108 19.4734 14.6143 19.9626 14.6143H21.1549V12.8154C21.1549 12.3117 21.5435 11.9231 22.0473 11.9231H25.1273C27.2142 11.9231 28.6036 12.9693 28.8976 14.6143H29.5011C29.9902 14.6143 30.3868 15.0108 30.3868 15.5C30.3868 15.9892 29.9902 16.3857 29.5011 16.3857H28.8104C28.3383 18.0383 26.7718 19.0769 24.9258 19.0769H22.9252V21.7759C22.9252 22.2652 22.5366 22.6538 22.0473 22.6538ZM27.0284 14.6143C26.7442 13.9036 26.0052 13.5351 24.9834 13.5351H22.9252V14.6143H27.0284ZM22.9252 16.3857H26.8868C26.5392 17.0093 25.8724 17.4793 24.9834 17.4793H22.9252V16.3857ZM9.05716 29.971C9.04957 29.9642 9.00806 29.9269 8.85572 29.9269C8.7775 29.9269 8.74026 29.939 8.73 29.9428C8.72141 29.9461 8.71847 29.9482 8.71353 29.9528C8.7006 29.9649 8.62742 30.0447 8.57493 30.2822C8.46576 30.7764 8.52945 31.6015 8.88153 32.5536C8.91113 32.4817 8.93931 32.4093 8.96604 32.3365C9.29059 31.4524 9.32126 30.6996 9.20267 30.2639C9.14727 30.0604 9.07719 29.9881 9.05716 29.971Z" fill="#41509E"/>
</svg>
