<svg width="62" height="62" viewBox="0 0 62 62" fill="none" xmlns="http://www.w3.org/2000/svg">
<path opacity="0.4" d="M46.5 49.183C46.5 53.6278 43.2971 57.2311 39.3462 57.2311C35.3952 57.2311 32.1923 53.6278 32.1923 49.183C32.1923 46.1292 35.569 40.9402 37.6826 37.9913C38.5108 36.8359 40.1815 36.8359 41.0097 37.9913C43.1233 40.9402 46.5 46.1292 46.5 49.183Z" fill="#0A5363"/>
<path fill-rule="evenodd" clip-rule="evenodd" d="M20.2693 15.6478C15.995 18.8921 13.2346 24.0274 13.2346 29.8074C13.2346 34.6071 15.138 38.9622 18.2311 42.1591C18.9175 41.4628 19.5963 40.7712 20.2693 40.0832L20.2693 15.6478ZM22.6539 14.1206L22.6539 37.6365C24.1403 36.1065 25.6078 34.5882 27.0762 33.069L27.0817 33.0633C27.5926 32.5348 28.1035 32.0061 28.6154 31.4768V12.2007C26.4855 12.4864 24.4752 13.1496 22.6539 14.1206ZM31 12.042V29.0148C32.9414 27.0144 34.914 24.9938 36.9616 22.9255V12.042H31ZM48.046 12.042C44.9321 15.0065 42.0632 17.8164 39.3462 20.5301V12.042H48.046ZM31 50.1959C26.2135 50.1959 21.8123 48.5465 18.3336 45.785C14.8147 49.3276 11.0631 53.0177 6.86285 56.991C6.33664 57.4887 5.50654 57.4657 5.00877 56.9395C4.51101 56.4133 4.53406 55.5832 5.06028 55.0854C9.203 51.1666 12.9069 47.5247 16.3857 44.024C12.8123 40.3513 10.6116 35.3364 10.6116 29.8074C10.6116 18.5472 19.7398 9.41895 31 9.41895H50.077C51.4598 9.41895 52.5808 10.54 52.5808 11.9228V17.8843C52.5808 18.6087 51.9936 19.1959 51.2693 19.1959C50.5449 19.1959 49.9577 18.6087 49.9577 17.8843V13.8437C41.8523 21.5557 35.4158 28.2149 28.9623 34.892L28.9569 34.8976C26.0872 37.8667 23.214 40.8394 20.1911 43.9073C23.1855 46.2063 26.9332 47.5728 31 47.5728C39.9616 47.5728 47.3742 40.9367 48.5905 32.3113H40.5385C39.8141 32.3113 39.227 31.7241 39.227 30.9997C39.227 30.2754 39.8141 29.6882 40.5385 29.6882H50.0403C50.4022 29.6882 50.7479 29.8377 50.9958 30.1013C51.2437 30.3649 51.3716 30.7193 51.3493 31.0804C50.6915 41.7483 41.8328 50.1959 31 50.1959Z" fill="#0A5363"/>
</svg>
