<svg width="48" height="48" viewBox="0 0 48 48" fill="none" xmlns="http://www.w3.org/2000/svg">
<path fill-rule="evenodd" clip-rule="evenodd" d="M11.0944 24.1335C11.4764 20.4571 12.9861 17.6854 15.0554 15.764C17.4765 13.5159 20.7252 12.375 24 12.375C27.2748 12.375 30.5235 13.516 32.9445 15.764C35.014 17.6857 36.5238 20.4576 36.9056 24.1344C36.4462 23.9199 35.9398 23.767 35.3896 23.6876C34.9677 21.9307 33.3863 20.6249 31.5 20.6249C29.2909 20.6249 27.5 22.4158 27.5 24.6249V34.6249C27.5 36.8341 29.2909 38.6249 31.5 38.6249C33.5659 38.6249 35.2661 37.0587 35.4778 35.0489C36.8071 34.8362 37.8745 34.1911 38.6379 33.2847C39.5618 32.1875 39.998 30.7614 39.998 29.3749C39.998 28.184 39.6762 26.9639 38.9999 25.9481C38.9875 20.842 37.1399 16.9304 34.3054 14.2984C31.4765 11.6716 27.7252 10.375 24 10.375C20.2748 10.375 16.5235 11.6715 13.6945 14.2984C10.8606 16.9299 9.01316 20.8405 9.00006 25.9451C8.32241 26.9615 7.99999 28.1829 8 29.3749C8.00001 30.7614 8.43618 32.1875 9.36015 33.2847C10.1239 34.1916 11.192 34.8369 12.5222 35.0492C12.7341 37.0589 14.4342 38.6249 16.5 38.6249C18.7091 38.6249 20.5 36.8341 20.5 34.6249V24.6249C20.5 22.4158 18.7091 20.6249 16.5 20.6249C14.6138 20.6249 13.0325 21.9305 12.6105 23.6873C12.0602 23.7665 11.5539 23.9192 11.0944 24.1335ZM14.5 24.6105L14.5001 24.6249L14.5 24.6426V34.1073L14.5001 34.1249L14.5 34.1426V34.6249C14.5 35.7295 15.3954 36.6249 16.5 36.6249C17.6046 36.6249 18.5 35.7295 18.5 34.6249V24.6249C18.5 23.5204 17.6046 22.6249 16.5 22.6249C15.4002 22.6249 14.5078 23.5126 14.5 24.6105ZM12.5 33.0041V25.7458C11.8062 25.9255 11.2785 26.292 10.8899 26.7535C10.3138 27.4375 10 28.3864 10 29.3749C10 30.3635 10.3139 31.3123 10.8899 31.9964C11.2785 32.4578 11.8062 32.8244 12.5 33.0041ZM31.5 22.6249C30.3954 22.6249 29.5 23.5204 29.5 24.6249V34.6249C29.5 35.7295 30.3954 36.6249 31.5 36.6249C32.6046 36.6249 33.5 35.7295 33.5 34.6249V34.1904C33.4986 34.1687 33.4979 34.1469 33.4979 34.1249C33.4979 34.103 33.4986 34.0811 33.5 34.0595V24.6904C33.4986 24.6687 33.4979 24.6469 33.4979 24.6249C33.4979 24.607 33.4984 24.5892 33.4993 24.5715C33.471 23.4916 32.5867 22.6249 31.5 22.6249ZM37.1081 31.9964C36.7199 32.4574 36.1928 32.8237 35.5 33.0036V25.7463C36.1928 25.9262 36.7199 26.2925 37.1081 26.7535C37.6842 27.4375 37.998 28.3864 37.998 29.3749C37.998 30.3635 37.6842 31.3123 37.1081 31.9964Z" fill="#1C6B9E" fill-opacity="0.4"/>
</svg>
