<svg width="48" height="48" viewBox="0 0 48 48" fill="none" xmlns="http://www.w3.org/2000/svg">
<g opacity="0.4">
<path fill-rule="evenodd" clip-rule="evenodd" d="M26 14V11H22C20.8954 11 20 11.8954 20 13V14C20 14.5523 19.5523 15 19 15C18.4477 15 18 14.5523 18 14V13C18 10.7909 19.7909 9 22 9H27H33H36C36.5523 9 37 9.44772 37 10C37 10.5523 36.5523 11 36 11H34V14H36C36.5523 14 37 14.4477 37 15V21V33V41C37 41.5523 36.5523 42 36 42H30H24C23.4477 42 23 41.5523 23 41V38.4977C21.5609 39.1285 19.7781 39.4998 17.5965 39.5L17.7247 36.9484C19.7873 34.6714 20.1282 32.5883 19.8001 30.8338C19.558 29.5387 18.937 28.3446 18.2087 27.316L18.3576 24.3514C19.4003 25.4688 20.6721 27.0816 21.3758 29.0387C21.8535 28.7509 22.4065 28.5002 23 28.3062V21V15C23 14.4477 23.4477 14 24 14H26ZM18.2084 27.3156L18.2087 27.316L17.7247 36.9484L17.7234 36.9498L18.2084 27.3156ZM18.2084 27.3156C18.0103 27.0359 17.8043 26.7684 17.5958 26.5144C16.6205 27.7023 15.6996 29.1863 15.3918 30.8337C15.0572 32.6241 15.4192 34.7566 17.5962 37.0882C17.6393 37.042 17.6817 36.9958 17.7234 36.9498L17.5951 39.5C12.9284 39.4997 10.087 37.8013 8.52993 35.4975C7.01462 33.2554 6.82976 30.6062 7.10799 28.844C7.17327 28.4306 7.48913 28.1015 7.89956 28.0194C9.35232 27.7288 10.779 27.9162 11.9677 28.3031C12.6361 28.5207 13.2551 28.8098 13.7817 29.1356C14.4776 27.1348 15.774 25.4872 16.8338 24.3514C16.8578 24.3233 16.8836 24.2963 16.9111 24.2705C17.1043 24.0894 17.3503 23.9998 17.5957 24C17.8412 23.9998 18.0872 24.0894 18.2804 24.2705C18.3079 24.2963 18.3337 24.3233 18.3576 24.3514L18.2084 27.3156ZM32 11H28V14H32V11ZM25 20V16H27H33H35V20H25ZM25 22H35V32H28.0435C28.2461 30.8338 28.223 29.7274 28.0835 28.844C28.0182 28.4306 27.7024 28.1015 27.2919 28.0194C26.5111 27.8632 25.736 27.8352 25 27.8984V22ZM35 34H27.4662C27.2542 34.5095 26.9889 35.013 26.6614 35.4975C26.2166 36.1556 25.667 36.7643 25 37.2981V40H30H35V34ZM11.3488 30.2049C12.2375 30.4942 12.9313 30.918 13.315 31.2699C13.1451 33.1851 13.6397 35.2364 15.1753 37.3057C12.5757 36.8541 11.0624 35.6729 10.187 34.3775C9.21485 32.9391 8.94134 31.2306 9.00882 29.8882C9.82044 29.8389 10.6255 29.9695 11.3488 30.2049ZM20.0172 37.3055C21.5852 35.1923 22.0676 33.0977 21.8652 31.1478C22.2335 30.8096 22.9175 30.4112 23.8155 30.147C24.5411 29.9335 25.3563 29.8229 26.1824 29.8835C26.2508 31.2266 25.9777 32.9374 25.0044 34.3775C24.129 35.6727 22.616 36.8537 20.0172 37.3055Z" fill="#1C6B9E"/>
</g>
</svg>
