<svg width="48" height="48" viewBox="0 0 48 48" fill="none" xmlns="http://www.w3.org/2000/svg">
<g opacity="0.4">
<path fill-rule="evenodd" clip-rule="evenodd" d="M8 20C7.44772 20 7 20.4477 7 21V21.2929C7 21.4804 7.0745 21.6603 7.20711 21.7929L7.22602 21.8118C8.04174 22.6275 8.5 23.7339 8.5 24.8875C8.5 27.4905 10.5501 29.6317 13.1507 29.7447L14.6936 29.8118C16.8556 29.9058 18.8326 28.5984 19.5924 26.5722L20.577 23.9466C21.0161 22.7757 22.1355 22 23.386 22H24.4384C25.8151 22 27.015 22.9369 27.3489 24.2724L27.7864 26.0224C28.361 28.3208 30.4697 29.9004 32.8369 29.8057L34.8481 29.7253C37.4468 29.6213 39.5 27.4844 39.5 24.8836C39.5 23.7325 39.9573 22.6285 40.7712 21.8145L40.7929 21.7929C40.9255 21.6603 41 21.4804 41 21.2929V21C41 20.4477 40.5523 20 40 20H27.8055C27.5196 20 27.1814 20.1274 26.6976 20.3792C26.0835 20.6989 25.1859 21 24 21C22.7724 21 21.8418 20.6774 21.2184 20.3513C20.7693 20.1163 20.4436 20 20.1716 20H8ZM5 21C5 19.3431 6.34315 18 8 18H20.1716C20.9604 18 21.6548 18.3224 22.1456 18.5792C22.5201 18.7751 23.1348 19 24 19C24.8349 19 25.4178 18.7907 25.7742 18.6052C26.2683 18.3479 26.9888 18 27.8055 18H40C41.6569 18 43 19.3431 43 21V21.2929C43 22.0109 42.7148 22.6994 42.2071 23.2071L42.1855 23.2288C41.7466 23.6676 41.5 24.2629 41.5 24.8836C41.5 28.5579 38.5994 31.5768 34.9281 31.7237L32.9169 31.8041C29.6027 31.9367 26.6505 29.7252 25.8461 26.5075L25.4086 24.7575C25.2973 24.3123 24.8973 24 24.4384 24H23.386C22.9692 24 22.596 24.2586 22.4497 24.6489L21.4651 27.2744C20.4013 30.1111 17.6335 31.9415 14.6067 31.8099L13.0638 31.7428C9.39349 31.5833 6.5 28.5612 6.5 24.8875C6.5 24.2643 6.25245 23.6667 5.81181 23.226L5.79289 23.2071C5.28521 22.6994 5 22.0109 5 21.2929V21ZM10.1286 23.0022C10.6797 23.0387 11.0968 23.515 11.0603 24.0661C10.973 25.3841 11.7785 26.6458 13.0884 27.0835C13.6122 27.2585 13.895 27.825 13.72 28.3488C13.5449 28.8726 12.9784 29.1554 12.4546 28.9804C10.2611 28.2475 8.91881 26.1367 9.06469 23.9339C9.10118 23.3828 9.5775 22.9657 10.1286 23.0022ZM29.9373 24.0661C29.9738 23.515 29.5566 23.0387 29.0055 23.0022C28.4545 22.9657 27.9781 23.3828 27.9416 23.9339C27.7958 26.1367 29.138 28.2475 31.3316 28.9804C31.8554 29.1554 32.4219 28.8726 32.5969 28.3488C32.7719 27.825 32.4892 27.2585 31.9653 27.0835C30.6554 26.6458 29.85 25.3841 29.9373 24.0661Z" fill="#1C6B9E"/>
</g>
</svg>
