<svg width="41" height="40" viewBox="0 0 41 40" fill="none" xmlns="http://www.w3.org/2000/svg">
<path opacity="0.4" fill-rule="evenodd" clip-rule="evenodd" d="M11.1924 13.077C11.1924 11.76 12.26 10.6924 13.577 10.6924H17.4232C18.7401 10.6924 19.8078 11.76 19.8078 13.077V16.1539C19.8078 17.4709 18.7401 18.5385 17.4232 18.5385H13.577C12.26 18.5385 11.1924 17.4709 11.1924 16.1539V13.077ZM13.577 12.3847C13.1946 12.3847 12.8847 12.6946 12.8847 13.077V16.1539C12.8847 16.5363 13.1946 16.8462 13.577 16.8462H17.4232C17.8055 16.8462 18.1155 16.5363 18.1155 16.1539V13.077C18.1155 12.6946 17.8055 12.3847 17.4232 12.3847H13.577ZM21.9616 13.077C21.9616 11.76 23.0292 10.6924 24.3462 10.6924H28.1924C29.5094 10.6924 30.577 11.76 30.577 13.077V16.1539C30.577 17.4709 29.5094 18.5385 28.1924 18.5385H24.3462C23.0292 18.5385 21.9616 17.4709 21.9616 16.1539V13.077ZM24.3462 12.3847C23.9639 12.3847 23.6539 12.6946 23.6539 13.077V16.1539C23.6539 16.5363 23.9639 16.8462 24.3462 16.8462H28.1924C28.5747 16.8462 28.8847 16.5363 28.8847 16.1539V13.077C28.8847 12.6946 28.5747 12.3847 28.1924 12.3847H24.3462ZM13.577 21.4616C12.26 21.4616 11.1924 22.5292 11.1924 23.8462V26.9232C11.1924 28.2401 12.26 29.3078 13.577 29.3078H17.4232C18.7401 29.3078 19.8078 28.2401 19.8078 26.9232V23.8462C19.8078 22.5292 18.7401 21.4616 17.4232 21.4616H13.577ZM12.8847 23.8462C12.8847 23.4639 13.1946 23.1539 13.577 23.1539H17.4232C17.8055 23.1539 18.1155 23.4639 18.1155 23.8462V26.9232C18.1155 27.3055 17.8055 27.6155 17.4232 27.6155H13.577C13.1946 27.6155 12.8847 27.3055 12.8847 26.9232V23.8462ZM25.1155 27.6924C25.1155 28.5421 24.4267 29.2308 23.577 29.2308C22.7273 29.2308 22.0385 28.5421 22.0385 27.6924C22.0385 26.8427 22.7273 26.1539 23.577 26.1539C24.4267 26.1539 25.1155 26.8427 25.1155 27.6924ZM28.1924 24.6155C29.0421 24.6155 29.7308 23.9267 29.7308 23.077C29.7308 22.2273 29.0421 21.5385 28.1924 21.5385C27.3427 21.5385 26.6539 22.2273 26.6539 23.077C26.6539 23.9267 27.3427 24.6155 28.1924 24.6155Z" fill="white"/>
<path fill-rule="evenodd" clip-rule="evenodd" d="M9.73088 4.53857C7.13939 4.53857 5.03857 6.6394 5.03857 9.23088V13.8463C5.03857 14.3136 5.41741 14.6924 5.88473 14.6924C6.35205 14.6924 6.73088 14.3136 6.73088 13.8463V9.23088C6.73088 7.57403 8.07403 6.23088 9.73088 6.23088H14.3463C14.8136 6.23088 15.1924 5.85205 15.1924 5.38473C15.1924 4.91741 14.8136 4.53857 14.3463 4.53857H9.73088ZM35.9617 9.23088C35.9617 6.63939 33.8608 4.53857 31.2693 4.53857H26.654C26.1866 4.53857 25.8078 4.91741 25.8078 5.38473C25.8078 5.85205 26.1866 6.23088 26.654 6.23088L31.2693 6.23088C32.9262 6.23088 34.2693 7.57403 34.2693 9.23088L34.2693 13.8463C34.2693 14.3136 34.6482 14.6924 35.1155 14.6924C35.5828 14.6924 35.9617 14.3136 35.9617 13.8463V9.23088ZM35.9617 30.7693C35.9617 33.3608 33.8608 35.4617 31.2693 35.4617H26.654C26.1866 35.4617 25.8078 35.0828 25.8078 34.6155C25.8078 34.1482 26.1866 33.7693 26.654 33.7693L31.2693 33.7693C32.9262 33.7693 34.2693 32.4262 34.2693 30.7693V26.154C34.2693 25.6866 34.6482 25.3078 35.1155 25.3078C35.5828 25.3078 35.9617 25.6866 35.9617 26.154L35.9617 30.7693ZM5.03857 30.7693C5.03857 33.3608 7.13939 35.4617 9.73088 35.4617H14.3463C14.8136 35.4617 15.1924 35.0828 15.1924 34.6155C15.1924 34.1482 14.8136 33.7693 14.3463 33.7693H9.73088C8.07403 33.7693 6.73088 32.4262 6.73088 30.7693L6.73088 26.154C6.73088 25.6866 6.35205 25.3078 5.88473 25.3078C5.41741 25.3078 5.03857 25.6866 5.03857 26.154V30.7693Z" fill="white"/>
</svg>
