<svg width="41" height="40" viewBox="0 0 41 40" fill="none" xmlns="http://www.w3.org/2000/svg">
<path opacity="0.4" fill-rule="evenodd" clip-rule="evenodd" d="M34.4233 14.6153C34.4233 12.8735 33.0113 11.4614 31.2695 11.4614L21.0814 11.4614L9.73099 11.4614C9.49205 11.4614 9.25931 11.488 9.03557 11.5383L7.20352 11.5383C5.20073 11.5383 3.57715 13.1619 3.57715 15.1647L3.57715 26.923C3.57715 29.8968 5.98792 32.3076 8.96176 32.3076H18.5771L32.8079 32.3076C33.2328 32.3076 33.5771 31.9632 33.5771 31.5384C33.5771 31.1135 33.2328 30.7691 32.8079 30.7691H18.5771H8.96176C6.83759 30.7691 5.11561 29.0471 5.11561 26.923L5.11561 15.1647C5.11561 14.0905 5.92679 13.2058 6.97 13.0897C6.71966 13.5418 6.57715 14.0619 6.57715 14.6153L6.57715 26.1537C6.57715 27.8956 7.98917 29.3076 9.73099 29.3076H20.5002H31.2695C33.0113 29.3076 34.4233 27.8956 34.4233 26.1537V14.6153ZM31.2695 13.1537C32.0766 13.1537 32.731 13.8081 32.731 14.6153L32.731 26.1537C32.731 26.9609 32.0766 27.6153 31.2695 27.6153H20.5002H9.73099C8.92381 27.6153 8.26945 26.9609 8.26945 26.1537L8.26946 14.6153C8.26946 13.8081 8.92381 13.1537 9.73099 13.1537L21.0814 13.1537L31.2695 13.1537Z" fill="white"/>
<path fill-rule="evenodd" clip-rule="evenodd" d="M8.19231 19.2309L0.5 12.3078L8.19231 5.38477V7.69246L13.9615 7.69246C14.5988 7.69246 15.1154 8.20905 15.1154 8.84631L15.1154 15.7694C15.1154 16.4066 14.5988 16.9232 13.9615 16.9232L8.19231 16.9232V19.2309ZM18.5702 23.8463C18.2452 23.8463 17.9945 23.5956 17.9945 23.2799V19.8024H17.2253C16.9097 19.8024 16.6538 19.5465 16.6538 19.2309C16.6538 18.9153 16.9097 18.6595 17.2253 18.6595H17.9945V17.4989C17.9945 17.1739 18.2452 16.9232 18.5702 16.9232H20.5574C21.9037 16.9232 22.8001 17.5982 22.9898 18.6595H23.3791C23.6947 18.6595 23.9506 18.9153 23.9506 19.2309C23.9506 19.5465 23.6947 19.8024 23.3791 19.8024H22.9335C22.6289 20.8685 21.6183 21.5386 20.4274 21.5386H19.1366V23.2799C19.1366 23.5956 18.8859 23.8463 18.5702 23.8463ZM21.7839 18.6595C21.6005 18.201 21.1238 17.9632 20.4645 17.9632H19.1366V18.6595H21.7839ZM19.1366 19.8024H21.6925C21.4682 20.2046 21.038 20.5079 20.4645 20.5079H19.1366V19.8024ZM40.5 27.6925L32.8077 20.7694V23.0771H27.0385C26.4012 23.0771 25.8846 23.5937 25.8846 24.2309V31.154C25.8846 31.7912 26.4012 32.3078 27.0385 32.3078H32.8077V34.6155L40.5 27.6925Z" fill="white"/>
</svg>
