<svg width="24" height="24" viewBox="0 0 24 24" fill="none" xmlns="http://www.w3.org/2000/svg">
<path fill-rule="evenodd" clip-rule="evenodd" d="M5.12 23.488C4.032 23.488 3.168 22.592 3.168 21.504V8.1958H1.5C0.671573 8.1958 0 7.52423 0 6.6958C0 5.86738 0.671573 5.1958 1.5 5.1958H3.168V1.984C3.168 0.864 4.032 0 5.12 0H12.288C16.6452 0 19.7144 1.99413 20.7427 5.1958H22.5C23.3284 5.1958 24 5.86738 24 6.6958C24 7.52423 23.3284 8.1958 22.5 8.1958H21.1121C20.9091 13.1572 16.8004 15.712 11.84 15.712H7.104V21.504C7.104 22.592 6.208 23.488 5.12 23.488ZM16.2874 5.1958C15.4038 4.11713 13.8903 3.552 11.968 3.552H7.104V5.1958H16.2874ZM7.104 8.1958H17.1427C16.9913 10.5385 15.0111 12.192 11.968 12.192H7.104V8.1958Z" fill="white"/>
</svg>
