<svg width="41" height="40" viewBox="0 0 41 40" fill="none" xmlns="http://www.w3.org/2000/svg">
<path fill-rule="evenodd" clip-rule="evenodd" d="M27.4229 10.0002C27.4229 13.8237 24.3233 16.9233 20.4998 16.9233C16.6763 16.9233 13.5767 13.8237 13.5767 10.0002C13.5767 6.17672 16.6763 3.07715 20.4998 3.07715C24.3233 3.07715 27.4229 6.17672 27.4229 10.0002ZM19.1754 12.9673C18.8968 12.9673 18.6819 12.7524 18.6819 12.4817V9.47275H18.0226C17.7677 9.47275 17.561 9.26612 17.561 9.01121C17.561 8.75631 17.7677 8.54968 18.0226 8.54968L18.6819 8.54968V7.52666C18.6819 7.24809 18.8968 7.03319 19.1754 7.03319H20.8786C22.0446 7.03319 22.8168 7.62377 22.9684 8.54967H23.2973C23.5522 8.54967 23.7588 8.75631 23.7588 9.01121C23.7588 9.26611 23.5522 9.47275 23.2973 9.47275H22.9232C22.672 10.403 21.7985 10.9892 20.7672 10.9892H19.6609V12.4817C19.6609 12.7524 19.446 12.9673 19.1754 12.9673ZM21.9407 8.54968C21.7921 8.1382 21.3775 7.92462 20.7991 7.92462H19.6609V8.54968H21.9407ZM19.6609 9.47275H21.8669C21.6793 9.83152 21.304 10.1058 20.7991 10.1058H19.6609V9.47275ZM12.0383 25.3848C11.6134 25.3848 11.269 25.7292 11.269 26.1541V30.0002C11.269 30.1294 11.3009 30.2512 11.3572 30.3581L14.4272 36.4981C14.5575 36.7587 14.8238 36.9233 15.1152 36.9233H25.8844C26.1758 36.9233 26.4421 36.7587 26.5724 36.4981L29.6424 30.3581C29.6955 30.2574 29.7268 30.1435 29.7303 30.0226C29.7305 30.0151 29.7306 30.0077 29.7306 30.0002V26.1541C29.7306 25.7292 29.3862 25.3848 28.9613 25.3848H21.269V18.4618C21.269 18.0369 20.9246 17.6925 20.4998 17.6925C20.075 17.6925 19.7306 18.0369 19.7306 18.4618V25.3848H12.0383ZM28.1921 29.231V26.9233H20.4998H12.8075V29.231H28.1921ZM13.2829 30.7695L15.5906 35.3848H25.409L27.7167 30.7695H13.2829Z" fill="white"/>
<path opacity="0.4" fill-rule="evenodd" clip-rule="evenodd" d="M23.8212 23.8558C26.6142 23.9577 29.6361 24.068 29.7472 17.2993C29.7507 17.0869 29.5722 16.9079 29.3598 16.9117C22.7157 17.031 22.7626 20.2221 22.8172 23.0625C22.8254 23.4872 23.1715 23.8329 23.596 23.8477C23.6709 23.8503 23.746 23.853 23.8212 23.8558ZM18.2166 22.8523C18.3186 20.0593 18.4289 17.0374 11.6602 16.9263C11.4478 16.9228 11.2687 17.1013 11.2725 17.3137C11.3919 23.9578 14.5829 23.9109 17.4233 23.8563C17.848 23.8481 18.1938 23.502 18.2085 23.0775C18.2111 23.0026 18.2138 22.9275 18.2166 22.8523Z" fill="white"/>
</svg>
