<svg width="23" height="29" viewBox="0 0 23 29" fill="none" xmlns="http://www.w3.org/2000/svg">
<path fill-rule="evenodd" clip-rule="evenodd" d="M5.74301 25.5939C4.64119 25.5939 3.7912 24.77 3.7912 23.7325V12.3228H1.89583C0.848794 12.3228 0 11.4741 0 10.427C0 9.37997 0.848794 8.53118 1.89583 8.53118H3.7912V4.73562C3.7912 3.66763 4.64119 2.84375 5.74301 2.84375H10.5841C15.1407 2.84375 18.1769 5.05422 18.8272 8.53118H20.8543C21.9013 8.53118 22.7501 9.37997 22.7501 10.427C22.7501 11.4741 21.9013 12.3228 20.8543 12.3228H18.6345C17.5954 15.816 14.174 18.0105 10.1433 18.0105H7.66334V23.7325C7.66334 24.77 6.81336 25.5939 5.74301 25.5939ZM14.7346 8.53118C14.1076 7.03641 12.4952 6.26132 10.2692 6.26132H7.66334V8.53118H14.7346ZM7.66334 12.3228H14.4221C13.6589 13.6359 12.2049 14.6234 10.2692 14.6234H7.66334V12.3228Z" fill="#2044A5"/>
</svg>
