<svg width="40" height="40" viewBox="0 0 40 40" fill="none" xmlns="http://www.w3.org/2000/svg">
<circle opacity="0.4" cx="26.9232" cy="21.5385" r="1.53846" fill="white"/>
<path fill-rule="evenodd" clip-rule="evenodd" d="M18.343 8.57972C18.343 12.0111 15.5614 14.7927 12.13 14.7927C8.69866 14.7927 5.91699 12.0111 5.91699 8.57972C5.91699 5.14836 8.69866 2.3667 12.13 2.3667C15.5614 2.3667 18.343 5.14836 18.343 8.57972ZM10.9414 11.2429C10.6914 11.2429 10.4985 11.05 10.4985 10.8072V8.13209H9.90734C9.66458 8.13209 9.46778 7.9353 9.46778 7.69253C9.46778 7.44977 9.66458 7.25297 9.90734 7.25297H10.4985V6.3603C10.4985 6.1103 10.6914 5.91744 10.9414 5.91744H12.47C13.5056 5.91744 14.1951 6.43666 14.341 7.25297H14.6411C14.8838 7.25297 15.0806 7.44977 15.0806 7.69253C15.0806 7.9353 14.8838 8.13209 14.6411 8.13209H14.2978C14.0635 8.95226 13.2861 9.46774 12.37 9.46774H11.3771V10.8072C11.3771 11.05 11.1842 11.2429 10.9414 11.2429ZM13.4134 7.25297C13.2723 6.90033 12.9056 6.71744 12.3985 6.71744H11.3771V7.25297H13.4134ZM11.3771 8.13209L13.3432 8.13209C13.1707 8.44157 12.8397 8.67488 12.3985 8.67488H11.3771V8.13209ZM28.6786 11.7937C29.7472 11.3543 30.6701 12.2318 30.6701 13.1762V17.0232C32.0194 18.1215 33.0958 19.4617 33.7837 20.9716L35.3013 21.369C36.3019 21.631 36.9998 22.5352 36.9998 23.5695V25.7911C36.9998 26.7264 36.4273 27.5664 35.5567 27.9084L33.8086 28.595C33.1584 30.0402 32.1 31.4131 30.6552 32.5558L30.8625 33.2395C31.1712 34.2581 30.7324 35.3545 29.8062 35.8789L28.3149 36.7232C27.4032 37.2393 26.2569 37.066 25.5385 36.3034L24.7754 35.4934C22.8565 35.8087 20.5627 35.8087 17.8373 35.4684L16.6877 36.5038C15.982 37.1394 14.9557 37.2697 14.1136 36.8306L12.2716 35.8701C11.3114 35.3694 10.8373 34.2612 11.1382 33.221L11.4354 32.1936C10.3939 31.436 9.49209 30.5384 8.82533 29.4367C8.06376 28.1784 7.63454 26.696 7.6158 24.9322C6.83118 24.7609 6.16246 24.3592 5.61625 23.8455C4.93402 24.3557 4.08469 24.6928 3.07662 24.6928C2.6093 24.6928 2.23047 24.3139 2.23047 23.8466C2.23047 23.3793 2.6093 23.0005 3.07662 23.0005C3.64318 23.0005 4.14846 22.8142 4.57341 22.5095C4.40317 22.2122 4.26258 21.9101 4.15239 21.6163C3.85 20.8101 3.71394 19.9216 3.87948 19.1723C3.96397 18.7899 4.13896 18.3949 4.46399 18.0902C4.80283 17.7726 5.23863 17.6159 5.7131 17.6159C6.17384 17.6159 6.60041 17.7581 6.94211 18.0497C7.27424 18.3332 7.46817 18.7076 7.56984 19.0811C7.76813 19.8096 7.6577 20.6701 7.37292 21.4459C7.23013 21.8349 7.03044 22.2339 6.77538 22.6132C7.07237 22.8878 7.40821 23.0982 7.77127 23.2179C8.22515 20.8236 9.62262 18.3818 11.3536 16.808L12.4921 18.0601C10.6719 19.715 9.30747 22.5073 9.30747 24.8112C9.30747 26.3461 9.66742 27.5597 10.2731 28.5605C10.883 29.5682 11.769 30.4042 12.8827 31.1375C13.1924 31.3414 13.3332 31.7231 13.2302 32.0793L12.7639 33.6912C12.6868 33.9576 12.8082 34.2413 13.0541 34.3695L14.8961 35.33C15.1117 35.4425 15.3745 35.4091 15.5552 35.2464L16.9939 33.9505C17.1785 33.7842 17.4269 33.7075 17.6732 33.7406C20.6832 34.146 23.055 34.1161 24.9127 33.7491C25.1984 33.6927 25.493 33.7871 25.6926 33.999L26.7703 35.143C26.9543 35.3383 27.2478 35.3827 27.4812 35.2505L28.9725 34.4062C29.2096 34.272 29.322 33.9912 29.2429 33.7304L28.864 32.4804C28.7586 32.1328 28.8869 31.7567 29.1827 31.5459C30.7542 30.4257 31.8162 29.0326 32.3845 27.621C32.4714 27.4051 32.6434 27.2345 32.8601 27.1494L34.938 26.3332C35.1609 26.2457 35.3075 26.0306 35.3075 25.7911V23.5695C35.3075 23.3047 35.1288 23.0732 34.8726 23.0061L32.9551 22.504C32.6961 22.4362 32.4845 22.2498 32.3845 22.0014C31.7891 20.5224 30.7283 19.1841 29.312 18.1077C29.1014 17.9477 28.9778 17.6985 28.9778 17.4341V13.5094C27.864 14.0233 26.4474 14.9199 25.6988 15.7319C25.4864 15.9623 25.164 16.0565 24.8609 15.9765C23.6871 15.6669 22.4298 15.4986 21.1207 15.4986V13.8063C22.4006 13.8063 23.6405 13.9512 24.8164 14.2225C25.8995 13.2133 27.5276 12.267 28.6786 11.7937ZM5.84306 19.3366C5.83817 19.3322 5.81139 19.3082 5.7131 19.3082C5.66264 19.3082 5.63861 19.316 5.63199 19.3184C5.62645 19.3205 5.62455 19.3219 5.62137 19.3249C5.61303 19.3327 5.56581 19.3841 5.53194 19.5374C5.46151 19.8562 5.5026 20.3885 5.72975 21.0028C5.74885 20.9564 5.76703 20.9097 5.78427 20.8627C5.99366 20.2923 6.01345 19.8067 5.93694 19.5256C5.9012 19.3943 5.85598 19.3476 5.84306 19.3366Z" fill="white"/>
</svg>
